<?xml version="1.0" encoding="UTF-8"?>
<svg width="80px" height="80px" viewBox="0 0 80 80" version="1.1" xmlns="http://www.w3.org/2000/svg" xmlns:xlink="http://www.w3.org/1999/xlink">
  <!-- Generator: Sketch 49.3 (51167) - http://www.bohemiancoding.com/sketch -->
  <title>Artboard Copy 3</title>
  <desc>Created with Sketch.</desc>
  <defs></defs>
  <g id="Artboard-Copy-3" stroke="none" stroke-width="1" fill="none" fill-rule="evenodd">
    <circle id="mask" fill="#90C2C9" cx="40" cy="40" r="40"></circle>
    <path d="M21.724,55.144 C21.4999989,55.144 21.3240007,55.0800006 21.196,54.952 C21.0679994,54.8239994 21.004,54.6800008 21.004,54.52 C21.004,54.3599992 21.0759993,54.2160006 21.22,54.088 C21.3640007,53.9599994 21.5479989,53.8640003 21.772,53.8 C23.1160067,53.4479982 24.0999969,53.1520012 24.724,52.912 C25.3480031,52.6719988 25.8359983,52.3200023 26.188,51.856 C26.5400018,51.3919977 26.716,50.7440042 26.716,49.912 L26.716,31.912 C26.716,31.0159955 26.3640035,30.4000017 25.66,30.064 C24.9559965,29.7279983 23.9480066,29.4960006 22.636,29.368 C22.3159984,29.3359998 22.0280013,29.2400008 21.772,29.08 C21.5159987,28.9199992 21.388,28.7120013 21.388,28.456 C21.388,28.1679986 21.5079988,27.9440008 21.748,27.784 C21.9880012,27.6239992 22.2999981,27.5120003 22.684,27.448 C24.5080091,27.2239989 26.0279939,26.912002 27.244,26.512 C28.4600061,26.111998 29.6279944,25.4480046 30.748,24.52 C30.8120003,24.4559997 30.9239992,24.424 31.084,24.424 C31.276001,24.424 31.4439993,24.4719995 31.588,24.568 C31.7320007,24.6640005 31.804,24.7759994 31.804,24.904 C31.6439992,25.9280051 31.564,27.0639938 31.564,28.312 L31.564,50.344 C31.564,51.0800037 31.7239984,51.6399981 32.044,52.024 C32.3640016,52.4080019 32.8359969,52.7119989 33.46,52.936 C34.0840031,53.1600011 35.099993,53.4479982 36.508,53.8 C37.0520027,53.992001 37.324,54.2479984 37.324,54.568 C37.324,54.7280008 37.2600007,54.8639994 37.132,54.976 C37.0039994,55.0880006 36.844001,55.144 36.652,55.144 C35.3719936,55.144 34.0760066,55.0960005 32.764,55 C31.163992,54.9359997 29.9800039,54.904 29.212,54.904 C28.4439962,54.904 27.2280083,54.9359997 25.564,55 C24.2839936,55.0960005 23.0040064,55.144 21.724,55.144 Z M45.316,56.824 C44.0039934,56.824 43.348,56.6160021 43.348,56.2 C43.348,55.9439987 43.547998,55.7280009 43.948,55.552 C44.348002,55.3759991 44.7559979,55.2720002 45.172,55.24 C47.380011,55.1759997 49.2919919,54.7200042 50.908,53.872 C52.5240081,53.0239958 53.7559957,51.9600064 54.604,50.68 C55.4520042,49.3999936 55.876,48.0880067 55.876,46.744 C55.876,44.9199909 55.0600081,43.3920062 53.428,42.16 C51.7959918,40.9279938 49.0440193,39.7840053 45.172,38.728 C44.5639969,38.3759982 44.1400012,38.0320017 43.9,37.696 C43.6599988,37.3599983 43.54,36.9360026 43.54,36.424 C43.54,35.8479971 43.6759986,35.0960046 43.948,34.168 C44.2200013,33.2399954 44.6439971,31.880009 45.22,30.088 C45.3480006,29.7359982 45.4519996,29.4320013 45.532,29.176 C45.6120004,28.9199987 45.6839997,28.696001 45.748,28.504 C46.1000017,27.4479947 46.8039947,26.7920013 47.86,26.536 C49.268007,26.1839982 50.9639901,25.8480016 52.948,25.528 C54.9320099,25.2079984 56.6439928,24.9840006 58.084,24.856 L58.132,24.856 C58.3880013,24.856 58.5719994,24.951999 58.684,25.144 C58.7960005,25.336001 58.8040005,25.5439989 58.708,25.768 L58.18,26.968 L57.748,27.88 C57.2999977,28.9680054 56.5640051,29.5599995 55.54,29.656 L52.084,29.944 C49.4599869,30.136001 47.9080024,30.2799995 47.428,30.376 C47.1079984,30.4080002 46.7400021,30.8319959 46.324,31.648 C45.9079979,32.4640041 45.6840001,33.0639981 45.652,33.448 L45.652,33.592 C45.652,33.9440018 45.8439981,34.1679995 46.228,34.264 C49.5880168,35.1280043 52.467988,36.1519941 54.868,37.336 C56.7560094,38.2960048 58.1479955,39.4479933 59.044,40.792 C59.9400045,42.1360067 60.388,43.7359907 60.388,45.592 C60.388,47.3520088 59.8600053,49.0159922 58.804,50.584 C57.7479947,52.1520078 56.3080091,53.4639947 54.484,54.52 C53.2679939,55.1920034 51.8520081,55.7439978 50.236,56.176 C48.6199919,56.6080022 46.9800083,56.824 45.316,56.824 Z" id="15" fill="#FFFFFF"></path>
  </g>
</svg>
