<?xml version="1.0" encoding="UTF-8"?>
<svg width="80px" height="80px" viewBox="0 0 80 80" version="1.1" xmlns="http://www.w3.org/2000/svg" xmlns:xlink="http://www.w3.org/1999/xlink">
    <!-- Generator: Sketch 49.3 (51167) - http://www.bohemiancoding.com/sketch -->
    <title>Events? Copy</title>
    <desc>Created with Sketch.</desc>
    <defs>
        <circle id="path-1" cx="40" cy="40" r="40"></circle>
    </defs>
    <g id="Events?-Copy" stroke="none" stroke-width="1" fill="none" fill-rule="evenodd">
        <g id="Group">
            <mask id="mask-2" fill="white">
                <use xlink:href="#path-1"></use>
            </mask>
            <use id="mask" fill="#90BAAF" xlink:href="#path-1"></use>
        </g>
        <g id="Group-2" transform="translate(22.000000, 21.000000)" fill="#FFFFFF">
            <path d="M27.7532396,3.67567568 C27.7510937,3.64893171 27.75,3.62189087 27.75,3.59459459 L27.75,1 C27.75,0.44771525 28.1977153,-2.31613845e-16 28.75,-3.33066907e-16 L29.525,0 C30.0772847,-1.01453063e-16 30.525,0.44771525 30.525,1 L30.525,3.59459459 C30.525,3.62189087 30.5239063,3.64893171 30.5217604,3.67567568 L36,3.67567568 C36.5522847,3.67567568 37,4.12339093 37,4.67567568 L37,8.27027027 L0,8.27027027 L0,4.67567568 C-6.76353751e-17,4.12339093 0.44771525,3.67567568 1,3.67567568 L6.47823955,3.67567568 C6.47609366,3.64893171 6.475,3.62189087 6.475,3.59459459 L6.475,1 C6.475,0.44771525 6.92271525,-9.5692398e-18 7.475,-1.11022302e-16 L8.25,0 C8.80228475,-1.01453063e-16 9.25,0.44771525 9.25,1 L9.25,3.59459459 C9.25,3.62189087 9.24890634,3.64893171 9.24676045,3.67567568 L27.7532396,3.67567568 Z M37,10.1081081 L37,33 C37,33.5522847 36.5522847,34 36,34 L1,34 C0.44771525,34 6.76353751e-17,33.5522847 0,33 L0,10.1081081 L37,10.1081081 Z" id="Combined-Shape"></path>
        </g>
    </g>
</svg>