<?xml version="1.0" encoding="UTF-8"?>
<svg width="80px" height="200px" viewBox="0 0 80 200" version="1.1" xmlns="http://www.w3.org/2000/svg" xmlns:xlink="http://www.w3.org/1999/xlink">
    <title>Zig Zag</title>
    <desc>Created with Sketch.</desc>
    <g stroke="none" fill="white">
        <path d="M1.20792265e-12,200 L-0.464238345,200.185695 L-5,188.846291 L-9.53576165,200.185695 L-10,200 L-10.4642383,200.185695 L-15,188.846291 L-19.5357617,200.185695 L-20,200 L-20.4642383,200.185695 L-60.4642383,100.185695 L-60,100 L-60.4642383,99.8143047 L-20.4642383,-0.185695338 L-20,1.34336986e-14 L-19.5357617,-0.185695338 L-15,11.1537088 L-10.4642383,-0.185695338 L-10,-3.55271368e-15 L-9.53576165,-0.185695338 L-5,11.1537088 L-0.464238345,-0.185695338 L7.10542736e-15,-9.43689571e-16 L-7.10542736e-15,-0.5 L80,-0.5 L80,9.1038288e-15 L80.4642383,-0.185695338 L85,11.1537088 L89.5357617,-0.185695338 L90,-3.44169138e-15 L90.4642383,-0.185695338 L95,11.1537088 L99.5357617,-0.185695338 L100,-1.32671651e-14 L100.464238,-0.185695338 L140.464238,99.8143047 L140,100 L140.464238,100.185695 L100.464238,200.185695 L100,200 L99.5357617,200.185695 L95,188.846291 L90.4642383,200.185695 L90,200 L89.5357617,200.185695 L85,188.846291 L80.4642383,200.185695 L80,200 L80,200.5 L-7.10542736e-15,200.5 L-7.10542736e-15,200 Z M0.738516481,199.5 L9.26148352,199.5 L5,188.846291 L0.738516481,199.5 Z M10.7385165,199.5 L19.2614835,199.5 L15,188.846291 L10.7385165,199.5 Z M20.7385165,199.5 L59.2614835,199.5 L40,151.346291 L20.7385165,199.5 Z M60.7385165,199.5 L69.2614835,199.5 L65,188.846291 L60.7385165,199.5 Z M70.7385165,199.5 L79.2614835,199.5 L75,188.846291 L70.7385165,199.5 Z M0.738516481,0.5 L5,11.1537088 L9.26148352,0.5 L0.738516481,0.5 Z M10.7385165,0.5 L15,11.1537088 L19.2614835,0.5 L10.7385165,0.5 Z M20.7385165,0.5 L40,48.6537088 L59.2614835,0.5 L20.7385165,0.5 Z M60.7385165,0.5 L65,11.1537088 L69.2614835,0.5 L60.7385165,0.5 Z M70.7385165,0.5 L75,11.1537088 L79.2614835,0.5 L70.7385165,0.5 Z M20.7385165,100.5 L25,111.153709 L29.2614835,100.5 L20.7385165,100.5 Z M20.7385165,99.5 L29.2614835,99.5 L25,88.8462912 L20.7385165,99.5 Z M40.7385165,100.5 L45,111.153709 L49.2614835,100.5 L40.7385165,100.5 Z M40.7385165,99.5 L49.2614835,99.5 L45,88.8462912 L40.7385165,99.5 Z M39.2614835,99.5 L35,88.8462912 L30.7385165,99.5 L39.2614835,99.5 Z M30.7385165,100.5 L35,111.153709 L39.2614835,100.5 L30.7385165,100.5 Z M19.2614835,99.5 L-3.55271368e-14,51.3462912 L-19.4614835,100 L-7.10542736e-15,148.653709 L19.2614835,100.5 L-7.10542736e-15,100.5 L-7.10542736e-15,99.5 L19.2614835,99.5 Z M59.2614835,99.5 L55,88.8462912 L50.7385165,99.5 L59.2614835,99.5 Z M50.7385165,100.5 L55,111.153709 L59.2614835,100.5 L50.7385165,100.5 Z M60.7385165,99.5 L80,99.5 L80,100.5 L60.7385165,100.5 L80,148.653709 L99.4614835,100 L80,51.3462912 L60.7385165,99.5 Z M-10,198.653709 L-5.53851648,187.5 L-10,176.346291 L-14.4614835,187.5 L-10,198.653709 Z M5,163.846291 L0.538516481,175 L5,186.153709 L9.46148352,175 L5,163.846291 Z M4.46148352,162.5 L-2.13162821e-14,151.346291 L-4.46148352,162.5 L-1.42108547e-14,173.653709 L4.46148352,162.5 Z M-4.46148352,187.5 L-2.13162821e-14,198.653709 L4.46148352,187.5 L-7.10542736e-15,176.346291 L-4.46148352,187.5 Z M-5,186.153709 L-0.538516481,175 L-5,163.846291 L-9.46148352,175 L-5,186.153709 Z M5.53851648,162.5 L10,173.653709 L29.4614835,125 L25,113.846291 L5.53851648,162.5 Z M5,161.153709 L24.4614835,112.5 L20,101.346291 L0.538516481,150 L5,161.153709 Z M25.5385165,112.5 L30,123.653709 L34.4614835,112.5 L30,101.346291 L25.5385165,112.5 Z M14.4614835,187.5 L10,176.346291 L5.53851648,187.5 L10,198.653709 L14.4614835,187.5 Z M15,186.153709 L34.4614835,137.5 L30,126.346291 L10.5385165,175 L15,186.153709 Z M15.5385165,187.5 L20,198.653709 L39.4614835,150 L35,138.846291 L15.5385165,187.5 Z M44.4614835,112.5 L40,101.346291 L35.5385165,112.5 L40,123.653709 L44.4614835,112.5 Z M45,113.846291 L40.5385165,125 L45,136.153709 L49.4614835,125 L45,113.846291 Z M35,136.153709 L39.4614835,125 L35,113.846291 L30.5385165,125 L35,136.153709 Z M35.5385165,137.5 L40,148.653709 L44.4614835,137.5 L40,126.346291 L35.5385165,137.5 Z M45.5385165,112.5 L50,123.653709 L54.4614835,112.5 L50,101.346291 L45.5385165,112.5 Z M-0.538516481,150 L-20.4642383,100.185695 L-20,100 L-20.4642383,99.8143047 L-0.538516481,50 L-5,38.8462912 L-29.4614835,100 L-5,161.153709 L-0.538516481,150 Z M-5.53851648,162.5 L-30.4642383,100.185695 L-30,100 L-30.4642383,99.8143047 L-5.53851648,37.5 L-10,26.3462912 L-39.4614835,100 L-10,173.653709 L-5.53851648,162.5 Z M-10.5385165,175 L-40.4642383,100.185695 L-40,100 L-40.4642383,99.8143047 L-10.5385165,25 L-15,13.8462912 L-49.4614835,100 L-15,186.153709 L-10.5385165,175 Z M-15.5385165,187.5 L-50.4642383,100.185695 L-50,100 L-50.4642383,99.8143047 L-15.5385165,12.5 L-20,1.3462912 L-59.4614835,100 L-20,198.653709 L-15.5385165,187.5 Z M50.5385165,125 L70,173.653709 L74.4614835,162.5 L55,113.846291 L50.5385165,125 Z M60,101.346291 L55.5385165,112.5 L75,161.153709 L79.4614835,150 L60,101.346291 Z M50,126.346291 L45.5385165,137.5 L65,186.153709 L69.4614835,175 L50,126.346291 Z M40.5385165,150 L60,198.653709 L64.4614835,187.5 L45,138.846291 L40.5385165,150 Z M90,198.653709 L94.4614835,187.5 L90,176.346291 L85.5385165,187.5 L90,198.653709 Z M75,163.846291 L70.5385165,175 L75,186.153709 L79.4614835,175 L75,163.846291 Z M75.5385165,162.5 L80,173.653709 L84.4614835,162.5 L80,151.346291 L75.5385165,162.5 Z M84.4614835,187.5 L80,176.346291 L75.5385165,187.5 L80,198.653709 L84.4614835,187.5 Z M85,186.153709 L89.4614835,175 L85,163.846291 L80.5385165,175 L85,186.153709 Z M65.5385165,187.5 L70,198.653709 L74.4614835,187.5 L70,176.346291 L65.5385165,187.5 Z M80.5385165,150 L85,161.153709 L109.461484,100 L85,38.8462912 L80.5385165,50 L100.464238,99.8143047 L100,100 L100.464238,100.185695 L80.5385165,150 Z M85.5385165,162.5 L90,173.653709 L119.461484,100 L90,26.3462912 L85.5385165,37.5 L110.464238,99.8143047 L110,100 L110.464238,100.185695 L85.5385165,162.5 Z M90.5385165,175 L95,186.153709 L129.461484,100 L95,13.8462912 L90.5385165,25 L120.464238,99.8143047 L120,100 L120.464238,100.185695 L90.5385165,175 Z M95.5385165,187.5 L100,198.653709 L139.461484,100 L100,1.3462912 L95.5385165,12.5 L130.464238,99.8143047 L130,100 L130.464238,100.185695 L95.5385165,187.5 Z M70,1.3462912 L65.5385165,12.5 L70,23.6537088 L74.4614835,12.5 L70,1.3462912 Z M30,98.6537088 L34.4614835,87.5 L30,76.3462912 L25.5385165,87.5 L30,98.6537088 Z M45,63.8462912 L40.5385165,75 L45,86.1537088 L49.4614835,75 L45,63.8462912 Z M44.4614835,62.5 L40,51.3462912 L35.5385165,62.5 L40,73.6537088 L44.4614835,62.5 Z M35.5385165,87.5 L40,98.6537088 L44.4614835,87.5 L40,76.3462912 L35.5385165,87.5 Z M35,86.1537088 L39.4614835,75 L35,63.8462912 L30.5385165,75 L35,86.1537088 Z M45.5385165,62.5 L50,73.6537088 L69.4614835,25 L65,13.8462912 L45.5385165,62.5 Z M45,61.1537088 L64.4614835,12.5 L60,1.3462912 L40.5385165,50 L45,61.1537088 Z M54.4614835,87.5 L50,76.3462912 L45.5385165,87.5 L50,98.6537088 L54.4614835,87.5 Z M90,1.3462912 L85.5385165,12.5 L90,23.6537088 L94.4614835,12.5 L90,1.3462912 Z M84.4614835,12.5 L80,1.3462912 L75.5385165,12.5 L80,23.6537088 L84.4614835,12.5 Z M85,13.8462912 L80.5385165,25 L85,36.1537088 L89.4614835,25 L85,13.8462912 Z M79.4614835,25 L75,13.8462912 L70.5385165,25 L75,36.1537088 L79.4614835,25 Z M80,26.3462912 L75.5385165,37.5 L80,48.6537088 L84.4614835,37.5 L80,26.3462912 Z M55,86.1537088 L74.4614835,37.5 L70,26.3462912 L50.5385165,75 L55,86.1537088 Z M55.5385165,87.5 L60,98.6537088 L79.4614835,50 L75,38.8462912 L55.5385165,87.5 Z M39.4614835,50 L20,1.3462912 L15.5385165,12.5 L35,61.1537088 L39.4614835,50 Z M34.4614835,62.5 L15,13.8462912 L10.5385165,25 L30,73.6537088 L34.4614835,62.5 Z M29.4614835,75 L10,26.3462912 L5.53851648,37.5 L25,86.1537088 L29.4614835,75 Z M24.4614835,87.5 L5,38.8462912 L0.538516481,50 L20,98.6537088 L24.4614835,87.5 Z M10,1.3462912 L5.53851648,12.5 L10,23.6537088 L14.4614835,12.5 L10,1.3462912 Z M-5.53851648,12.5 L-10,1.3462912 L-14.4614835,12.5 L-10,23.6537088 L-5.53851648,12.5 Z M-4.46148352,12.5 L-2.13162821e-14,23.6537088 L4.46148352,12.5 L-7.10542736e-15,1.3462912 L-4.46148352,12.5 Z M-5,13.8462912 L-9.46148352,25 L-5,36.1537088 L-0.538516481,25 L-5,13.8462912 Z M0.538516481,25 L5,36.1537088 L9.46148352,25 L5,13.8462912 L0.538516481,25 Z M-7.10542736e-15,26.3462912 L-4.46148352,37.5 L-2.84217094e-14,48.6537088 L4.46148352,37.5 L-7.10542736e-15,26.3462912 Z"></path>
        
    </g>
</svg>

