<?xml version="1.0" encoding="UTF-8"?>
<svg width="43px" height="42px" viewBox="0 0 43 42" version="1.1" xmlns="http://www.w3.org/2000/svg" xmlns:xlink="http://www.w3.org/1999/xlink">
    <!-- Generator: Sketch 49.3 (51167) - http://www.bohemiancoding.com/sketch -->
    <title>Logo / Purp</title>
    <desc>Created with Sketch.</desc>
    <defs></defs>
    <g id="Symbols" stroke="none" stroke-width="1" fill="none" fill-rule="evenodd">
        <g id="Logo" fill="#655484">
            <g id="Logo-/-Purp">
                <g>
                    <path d="M21.4318528,5.21659033 L22.4135108,5.21659033 C22.9818724,5.27229426 23.1739359,5.57504955 23.1739359,5.57504955 C23.3830465,5.75814924 23.3558975,6.05722477 23.3558975,6.05722477 C22.8564818,5.94962356 21.4343783,5.94962356 21.4343783,5.94962356 C21.4343783,5.94962356 19.9976269,5.94962356 19.5153845,6.05722477 C19.5153845,6.05722477 19.4883618,5.75814924 19.6974724,5.57504955 C19.6974724,5.57504955 19.8843587,5.27229426 20.4527202,5.21659033 L21.4318528,5.21659033 Z M3.78823534e-05,21.640113 C3.78823534e-05,9.68901934 9.59285984,8.88217523e-05 21.4245289,8.88217523e-05 C27.5064144,8.88217523e-05 32.9979665,2.5601855 36.8977022,6.67161752 L24.615612,9.42458429 L24.615612,8.98694683 C24.615612,8.98694683 24.6205367,8.78671722 24.4679971,8.66541208 C24.2932332,8.54436073 24.0350018,8.42572024 23.5232112,8.32433656 C22.4627579,8.12664471 21.4294536,8.14872326 21.4294536,8.14872326 C21.4294536,8.14872326 20.7110779,8.14631239 20.068972,8.31811903 C19.1168622,8.57900121 18.2407696,9.06104955 18.2407696,10.9400103 L18.2407696,12.3800647 C17.5668426,12.5320767 16.6564034,12.8646508 16.0512959,13.1823789 C16.0512959,13.1823789 15.5862269,13.3900949 15.6157751,13.791823 L15.6157751,14.2207051 C15.6157751,14.2207051 15.5911516,14.4222036 15.8298104,14.3517807 C15.8298104,14.3517807 18.4770293,13.0908924 21.4343783,13.1045964 C24.3917273,13.0908924 27.0415979,14.3517807 27.0415979,14.3517807 C27.2777312,14.4222036 27.2531077,14.2207051 27.2531077,14.2207051 L27.2531077,13.791823 C27.2850551,13.3900949 26.8201124,13.1823789 26.8201124,13.1823789 C26.2074285,12.8622399 25.2947163,12.5285239 24.615612,12.3776538 L24.615612,11.3503668 L42.0224269,15.6644393 C42.5612402,17.5620526 42.8491461,19.5682822 42.8491461,21.640113 C42.8491461,30.752971 37.2740002,38.5505057 29.3813383,41.7398411 L27.051321,24.4226447 C26.9380528,23.500548 26.9259304,22.8168743 26.3402693,22.5746447 C26.3402693,22.5746447 24.9230904,21.8923668 22.71859,21.8106508 L22.71859,22.8737202 L20.2361595,22.8737202 L20.2361595,21.8007535 C18.6123955,21.9564453 15.9969979,22.8812066 15.8026614,25.6773154 L14.0042598,41.9486991 C5.83101592,38.8990677 3.78823534e-05,30.9581492 3.78823534e-05,21.640113 L3.78823534e-05,21.640113 Z M21.4343783,16.6249831 C21.4343783,16.6249831 16.7769955,16.6980707 16.5432614,20.2259438 L16.4177445,21.6141009 C15.8889069,21.8131885 15.9207281,22.0467897 15.9207281,22.0467897 C15.9207281,22.0467897 15.905954,22.4510556 16.038921,22.3694665 C16.6982002,21.9837263 18.2950677,21.4002943 20.2361595,21.1876296 L20.2361595,20.3953396 L20.7134771,19.9280103 L21.4343783,19.9280103 L22.2537736,19.9280103 L22.7163171,20.3953396 L22.7163171,21.1876296 C25.4742787,21.3247958 27.0095242,22.2494302 27.0095242,22.2494302 C27.0095242,22.2494302 27.080743,22.1085843 27.0759445,21.9219317 C27.0735453,21.7265239 26.5790544,21.4991402 26.5790544,21.4991402 C26.5790544,21.4991402 26.2641257,18.0899076 26.0769869,17.736397 C26.0008434,17.555835 25.872801,17.4100405 25.6735398,17.3309891 C25.6735398,17.3309891 23.880063,16.5941492 21.4343783,16.6249831 L21.4343783,16.6249831 Z M21.4343783,13.8017202 C21.4343783,13.8017202 16.8705649,13.8277323 16.6317798,17.2393758 C16.6317798,17.2393758 18.1276277,16.1763063 21.4343783,16.0921795 C21.4343783,16.0921795 23.7323218,16.0206145 26.1705563,16.9427112 L26.8446096,15.3283124 C26.8446096,15.3283124 27.0340214,15.0391341 26.3083218,14.7485601 C26.3083218,14.7485601 25.3807093,14.3864211 24.19979,14.1169106 C23.3190253,13.9141432 22.2881202,13.7793879 21.4343783,13.8017202 L21.4343783,13.8017202 Z M21.4343783,7.43675347 C22.9400755,7.42685619 24.3621791,7.75828822 25.0363587,7.94608278 L25.4374065,6.89037281 C25.3954834,6.65309184 25.1125022,6.52442719 25.1125022,6.52442719 C24.8838191,6.38231239 24.1824904,6.21177462 24.1824904,6.21177462 C24.1112716,4.59864471 22.1354544,4.6256719 22.1354544,4.6256719 C22.1503547,3.69126707 21.4343783,3.74811299 21.4343783,3.74811299 C21.4343783,3.74811299 20.7209273,3.69126707 20.7333022,4.6256719 C20.7333022,4.6256719 18.7576112,4.59864471 18.6886653,6.21177462 C18.6886653,6.21177462 17.9850638,6.38231239 17.7562544,6.52442719 C17.7562544,6.52442719 17.4683485,6.62961752 17.4265516,6.88415529 L17.8275995,7.94849366 C18.4968544,7.76057221 19.9237563,7.42685619 21.4343783,7.43675347 L21.4343783,7.43675347 Z" id="Icon"></path>
                </g>
            </g>
        </g>
    </g>
</svg>