<?xml version="1.0" encoding="UTF-8"?>
<svg width="32px" height="32px" viewBox="0 0 32 32" version="1.1" xmlns="http://www.w3.org/2000/svg" xmlns:xlink="http://www.w3.org/1999/xlink">
    <!-- Generator: Sketch 49.3 (51167) - http://www.bohemiancoding.com/sketch -->
    <title>Combined Shape</title>
    <desc>Created with Sketch.</desc>
    <defs></defs>
    <g id="Symbols" stroke="none" stroke-width="1" fill="none" fill-rule="evenodd">
        <g id="footer-content" transform="translate(-803.000000, -39.000000)" fill="#000000">
            <g id="social" transform="translate(728.000000, 39.000000)">
                <path d="M91,32 C82.163444,32 75,24.836556 75,16 C75,7.163444 82.163444,0 91,0 C99.836556,0 107,7.163444 107,16 C107,24.836556 99.836556,32 91,32 Z M100.333356,16.0000079 C100.333356,14.5104228 100.333356,12.9270876 100.010439,11.4791692 C99.7812716,10.4583347 98.9687706,9.70833378 97.9896028,9.59375031 C95.6771,9.33333333 93.3333472,9.33333333 91.0000111,9.33333333 C88.666675,9.33333333 86.3229222,9.33333333 84.0104195,9.59375031 C83.0312516,9.70833378 82.2291673,10.4583347 82.0000004,11.4791692 C81.6666667,12.9270876 81.6666667,14.5104228 81.6666667,16.0000079 C81.6666667,17.4895931 81.6666667,19.0729283 81.9895837,20.5208467 C82.2187507,21.5416812 83.0312516,22.2916821 84.0104195,22.4062656 C86.3229222,22.6666826 88.666675,22.6666826 91.0000111,22.6666826 C93.3333472,22.6666826 95.6771,22.6666826 97.9896028,22.4062656 C98.9687706,22.2916821 99.7812716,21.5416812 100.000022,20.5208467 C100.333356,19.0729283 100.333356,17.4895931 100.333356,16.0000079 Z M95.0000159,16.0000079 C95.0000159,16.2291749 94.8854324,16.4479251 94.6875155,16.5625086 L89.3541758,19.8958459 C89.250009,19.9687627 89.1250089,20.0000127 89.0000087,20.0000127 C88.8854253,20.0000127 88.7812585,19.9687627 88.6770917,19.9166793 C88.4687581,19.8020958 88.3333413,19.5729289 88.3333413,19.3333453 L88.3333413,12.6666706 C88.3333413,12.427087 88.4687581,12.1979201 88.6770917,12.0833366 C88.8854253,11.9687531 89.1458422,11.9687531 89.3541758,12.10417 L94.6875155,15.4375073 C94.8854324,15.5520907 95.0000159,15.770841 95.0000159,16.0000079 Z" id="Combined-Shape"></path>
            </g>
        </g>
    </g>
</svg>
