<?xml version="1.0" encoding="UTF-8"?>
<svg width="80px" height="80px" viewBox="0 0 80 80" version="1.1" xmlns="http://www.w3.org/2000/svg" xmlns:xlink="http://www.w3.org/1999/xlink">
  <!-- Generator: Sketch 50.2 (55047) - http://www.bohemiancoding.com/sketch -->
  <title>News Icon | Fairport Perpectives</title>
  <desc>Created with Sketch.</desc>
  <g id="Fairport-Perpectives" stroke="none" stroke-width="1" fill="none" fill-rule="evenodd">
    <circle id="path-1" fill="#D49898" cx="40" cy="40" r="40"></circle>
    <path d="M21.95,52.232 C21.3166635,52.232 21,52.0800015 21,51.776 C21,51.5986658 21.0886658,51.4530006 21.266,51.339 C21.4433342,51.2249994 21.7219981,51.1300004 22.102,51.054 C23.0646715,50.8766658 23.7233316,50.5980019 24.078,50.218 C24.4326684,49.8379981 24.61,49.2046711 24.61,48.318 L24.61,31.94 C24.61,30.8506612 24.4516683,30.0463359 24.135,29.527 C23.8183317,29.0076641 23.2166711,28.6593342 22.33,28.482 C21.5699962,28.3299992 21.19,28.0766684 21.19,27.722 C21.19,27.5699992 21.284999,27.4496671 21.475,27.361 C21.6650009,27.2723329 21.8993319,27.228 22.178,27.228 C23.0646711,27.228 24.141327,27.2533331 25.408,27.304 C26.674673,27.3546669 27.6753297,27.38 28.41,27.38 L33.882,27.38 C34.6673373,27.38 35.5666616,27.3040008 36.58,27.152 C37.3400038,27.0506662 37.8213323,27 38.024,27 C38.2013342,27 38.3723325,27.0379996 38.537,27.114 C38.7016675,27.1900004 38.7966665,27.3039992 38.822,27.456 C38.8726669,28.1653369 38.9169998,28.918996 38.955,29.717 C38.9930002,30.515004 39.012,31.1926639 39.012,31.75 C39.012,31.9780011 38.9740004,32.1679992 38.898,32.32 C38.8219996,32.4720008 38.7333338,32.548 38.632,32.548 C38.4799992,32.548 38.3406673,32.4973338 38.214,32.396 C38.0873327,32.2946662 38.0113335,32.1680008 37.986,32.016 C37.7073319,31.0026616 37.3653354,30.2553357 36.96,29.774 C36.30133,29.11533 35.4273388,28.786 34.338,28.786 L30.196,28.786 C29.6386639,28.786 29.2460011,28.950665 29.018,29.28 C28.7899989,29.609335 28.6633335,30.0653304 28.638,30.648 L28.638,37.868 C28.638,38.4253361 28.8279981,38.704 29.208,38.704 L31.678,38.666 C32.1086688,38.6406665 32.6659966,38.628 33.35,38.628 C34.3886719,38.628 35.1613308,38.0580057 35.668,36.918 C35.7186669,36.7913327 35.8199992,36.6520008 35.972,36.5 C36.1240008,36.3479992 36.2506662,36.272 36.352,36.272 C36.4786673,36.272 36.5989994,36.3353327 36.713,36.462 C36.8270006,36.5886673 36.8713335,36.7533323 36.846,36.956 C36.7699996,37.893338 36.732,38.665997 36.732,39.274 C36.732,39.882003 36.7699996,40.7433278 36.846,41.858 C36.846,42.3900027 36.7320011,42.656 36.504,42.656 C36.2759989,42.656 36.0860008,42.561001 35.934,42.371 C35.7819992,42.180999 35.6680004,41.9720011 35.592,41.744 C35.262665,40.6546612 34.6546711,40.11 33.768,40.11 L31.906,40.072 C30.8419947,40.072 30.0440027,40.0846665 29.512,40.11 C29.2586654,40.1353335 29.0496675,40.2239992 28.885,40.376 C28.7203325,40.5280008 28.638,40.7559985 28.638,41.06 C28.638,44.252016 28.6759996,46.6586586 28.752,48.28 C28.7773335,49.1160042 28.9799981,49.7429979 29.36,50.161 C29.7400019,50.5790021 30.4113285,50.8766658 31.374,51.054 C31.7540019,51.1300004 32.0326658,51.2249994 32.21,51.339 C32.3873342,51.4530006 32.476,51.5986658 32.476,51.776 C32.476,52.0800015 32.1593365,52.232 31.526,52.232 C31.0446643,52.232 30.5506692,52.2130002 30.044,52.175 C29.5373308,52.1369998 29.1700011,52.118 28.942,52.118 C28.3086635,52.0419996 27.66267,52.004 27.004,52.004 C26.1933293,52.004 25.4080038,52.0419996 24.648,52.118 C24.3946654,52.118 24.0020027,52.1369998 23.47,52.175 C22.9379973,52.2130002 22.4313357,52.232 21.95,52.232 Z M41.11,52.232 C40.45133,52.232 40.122,52.0800015 40.122,51.776 C40.122,51.5986658 40.2106658,51.4530006 40.388,51.339 C40.5653342,51.2249994 40.8439981,51.1300004 41.224,51.054 C42.2120049,50.8766658 42.9086646,50.5916686 43.314,50.199 C43.7193353,49.8063314 43.922,49.1793376 43.922,48.318 L43.922,31.94 C43.922,30.8506612 43.7636682,30.0463359 43.447,29.527 C43.1303317,29.0076641 42.5286711,28.6593342 41.642,28.482 C40.8819962,28.3299992 40.502,28.0766684 40.502,27.722 C40.502,27.5699992 40.596999,27.4496671 40.787,27.361 C40.9770009,27.2723329 41.2113319,27.228 41.49,27.228 C42.2246703,27.228 43.0226623,27.2533331 43.884,27.304 L45.746,27.342 C46.2780026,27.342 47.0506616,27.2913338 48.064,27.19 C49.0266715,27.0886662 49.7739973,27.038 50.306,27.038 C53.2953483,27.038 55.6703245,27.6586605 57.431,28.9 C59.1916754,30.1413395 60.072,31.8513224 60.072,34.03 C60.072,35.6513414 59.7490032,37.1143268 59.103,38.419 C58.4569967,39.7236732 57.4816732,40.7623295 56.177,41.535 C54.8723268,42.3076705 53.2573429,42.694 51.332,42.694 C50.7746639,42.694 50.331335,42.6116675 50.002,42.447 C49.672665,42.2823325 49.508,42.0986677 49.508,41.896 C49.508,41.7693327 49.5839992,41.6426673 49.736,41.516 C49.8880007,41.3893327 50.0273327,41.326 50.154,41.326 C50.2806673,41.326 50.4959985,41.3449998 50.8,41.383 C51.1040015,41.4210002 51.4459981,41.44 51.826,41.44 C53.1686734,41.44 54.1946631,40.8320061 54.904,39.616 C55.6133369,38.3999939 55.968,36.7026776 55.968,34.524 C55.968,32.4719897 55.4613384,30.9266719 54.448,29.888 C53.4346616,28.8493281 52.0540087,28.33 50.306,28.33 C48.7606589,28.33 47.988,28.8999943 47.988,30.04 L47.95,48.014 C47.95,48.9006711 48.1589979,49.5846643 48.577,50.066 C48.9950021,50.5473357 49.6853285,50.8766658 50.648,51.054 C51.0280019,51.1300004 51.3066658,51.2249994 51.484,51.339 C51.6613342,51.4530006 51.75,51.5986658 51.75,51.776 C51.75,52.0800015 51.4206699,52.232 50.762,52.232 C50.5086654,52.232 49.6600072,52.1940004 48.216,52.118 C47.5826635,52.0419996 46.9366699,52.004 46.278,52.004 C45.4166623,52.004 44.5806707,52.0419996 43.77,52.118 C43.5166654,52.118 43.1240026,52.1369998 42.592,52.175 C42.0599973,52.2130002 41.5660023,52.232 41.11,52.232 Z" fill="#FFFFFF"></path>
  </g>
</svg>
