<?xml version="1.0" encoding="UTF-8"?>
<svg width="80px" height="80px" viewBox="0 0 80 80" version="1.1" xmlns="http://www.w3.org/2000/svg" xmlns:xlink="http://www.w3.org/1999/xlink">
    <!-- Generator: Sketch 49.3 (51167) - http://www.bohemiancoding.com/sketch -->
    <title>Misc Copy</title>
    <desc>Created with Sketch.</desc>
    <defs>
        <circle id="path-1" cx="40" cy="40" r="40"></circle>
    </defs>
    <g id="Misc-Copy" stroke="none" stroke-width="1" fill="none" fill-rule="evenodd">
        <mask id="mask-2" fill="white">
            <use xlink:href="#path-1"></use>
        </mask>
        <use id="mask" fill="#A298B5" xlink:href="#path-1"></use>
        <path d="M55.992955,46.4615383 C53.6760934,44.8185268 51.2920559,43.2907833 48.8876738,41.7978734 C47.9396633,41.2115269 46.9862786,40.6343005 46.0302069,40.0617608 C46.949044,39.5107548 47.865322,38.9558219 48.7768658,38.392149 C51.1812478,36.8992392 53.5652853,35.3713689 55.8821469,33.7283574 C56.7991926,33.0789302 57.1572077,31.8582301 56.6739257,30.803085 C56.1242357,29.6026518 54.6956302,29.0706459 53.4830109,29.6146852 C50.8873377,30.7795248 48.3587123,32.0595056 45.8504317,33.3744468 C44.9016534,33.873899 43.9578653,34.3820913 43.0165083,34.894337 C42.9936045,33.7883981 42.9654547,32.6824592 42.9265567,31.5765203 C42.8226581,28.7687959 42.6780702,25.9609448 42.3992586,23.1530937 C42.2896021,22.0422148 41.4007062,21.1250113 40.2359417,21.0116434 C38.9109788,20.8825686 37.7312437,21.8414459 37.6009866,23.1530937 C37.3220471,25.9609448 37.1775871,28.7687959 37.0736885,31.5765203 C37.0347905,32.6824592 37.0065127,33.7883981 36.9837369,34.894337 C36.042252,34.3820913 35.0984639,33.873899 34.1498135,33.3744468 C31.6415328,32.0595056 29.1129075,30.7795248 26.5171063,29.6146852 C25.490532,29.1532335 24.2436211,29.4567301 23.5621385,30.3985072 C22.7867378,31.4699924 23.0357361,32.9608756 24.1179703,33.7283574 C26.4349599,35.3713689 28.8188694,36.8992392 31.2232515,38.392149 C32.1347952,38.9558219 33.0512012,39.5107548 33.9699103,40.0617608 C33.0139666,40.6343005 32.0605819,41.2115269 31.1125713,41.7978734 C28.7081892,43.2907833 26.3240239,44.8185268 24.0071623,46.4615383 C23.0901165,47.1109655 22.7322294,48.3317924 23.2153834,49.3869374 C23.7650734,50.5873707 25.1936789,51.1193766 26.4062982,50.5753372 C29.0020994,49.410371 31.5307247,48.1305168 34.0388775,46.8155756 C35.025786,46.2958565 36.0074485,45.7672707 36.9864239,45.2338714 C37.0089438,46.2969965 37.036326,47.3602483 37.0736885,48.4233734 C37.1775871,51.2312245 37.3220471,54.0389489 37.6009866,56.8467999 C37.7105152,57.9578056 38.599411,58.8750091 39.7641756,58.988377 C41.0891384,59.1173251 42.2688735,58.1585745 42.3992586,56.8467999 C42.6780702,54.0389489 42.8226581,51.2312245 42.9265567,48.4233734 C42.9639192,47.3602483 42.9913013,46.2969965 43.0136933,45.2338714 C43.9926687,45.7672707 44.9743312,46.2958565 45.9612398,46.8155756 C48.4695204,48.1305168 50.9981458,49.410371 53.593819,50.5753372 C54.6203933,51.0366623 55.8674322,50.7332923 56.5489147,49.7913885 C57.3241875,48.7199033 57.0753172,47.2291468 55.992955,46.4615383" id="Fill-1" fill="#FFFFFF" mask="url(#mask-2)"></path>
    </g>
</svg>