<?xml version="1.0" encoding="UTF-8"?>
<svg width="163px" height="22px" viewBox="0 0 163 22" version="1.1" xmlns="http://www.w3.org/2000/svg" xmlns:xlink="http://www.w3.org/1999/xlink">
    <!-- Generator: Sketch 49.3 (51167) - http://www.bohemiancoding.com/sketch -->
    <title>logotype</title>
    <desc>Created with Sketch.</desc>
    <defs></defs>
    <g id="logotype" stroke="none" stroke-width="1" fill="none" fill-rule="evenodd">
        <path d="M1.53,21.12 C1.0299975,21.12 0.78,21.0000012 0.78,20.76 C0.78,20.6199993 0.8499993,20.5050004 0.99,20.415 C1.1300007,20.3249996 1.3499985,20.2500003 1.65,20.19 C2.4100038,20.0499993 2.9299986,19.8300015 3.21,19.53 C3.4900014,19.2299985 3.63,18.7300035 3.63,18.03 L3.63,5.1 C3.63,4.2399957 3.50500125,3.60500205 3.255,3.195 C3.00499875,2.78499795 2.5300035,2.5100007 1.83,2.37 C1.229997,2.2499994 0.93,2.0500014 0.93,1.77 C0.93,1.6499994 1.00499925,1.55500035 1.155,1.485 C1.30500075,1.41499965 1.4899989,1.38 1.71,1.38 C2.4100035,1.38 3.259995,1.3999998 4.26,1.44 C5.260005,1.4800002 6.0499971,1.5 6.63,1.5 L10.95,1.5 C11.5700031,1.5 12.279996,1.4400006 13.08,1.32 C13.680003,1.2399996 14.0599992,1.2 14.22,1.2 C14.3600007,1.2 14.4949994,1.2299997 14.625,1.29 C14.7550007,1.3500003 14.8299999,1.4399994 14.85,1.56 C14.8900002,2.1200028 14.9249999,2.71499685 14.955,3.345 C14.9850002,3.97500315 15,4.5099978 15,4.95 C15,5.1300009 14.9700003,5.2799994 14.91,5.4 C14.8499997,5.5200006 14.7800004,5.58 14.7,5.58 C14.5799994,5.58 14.4700005,5.5400004 14.37,5.46 C14.2699995,5.3799996 14.2100001,5.2800006 14.19,5.16 C13.9699989,4.359996 13.7000016,3.7700019 13.38,3.39 C12.8599974,2.8699974 12.1700043,2.61 11.31,2.61 L8.04,2.61 C7.5999978,2.61 7.2900009,2.7399987 7.11,3 C6.9299991,3.2600013 6.8300001,3.6199977 6.81,4.08 L6.81,9.78 C6.81,10.2200022 6.9599985,10.44 7.26,10.44 L9.21,10.41 C9.5500017,10.3899999 9.9899973,10.38 10.53,10.38 C11.3500041,10.38 11.959998,9.9300045 12.36,9.03 C12.4000002,8.9299995 12.4799994,8.8200006 12.6,8.7 C12.7200006,8.5799994 12.8199996,8.52 12.9,8.52 C13.0000005,8.52 13.0949996,8.5699995 13.185,8.67 C13.2750005,8.7700005 13.3100001,8.8999992 13.29,9.06 C13.2299997,9.8000037 13.2,10.4099976 13.2,10.89 C13.2,11.3700024 13.2299997,12.0499956 13.29,12.93 C13.29,13.3500021 13.2000009,13.56 13.02,13.56 C12.8399991,13.56 12.6900006,13.4850007 12.57,13.335 C12.4499994,13.1849992 12.3600003,13.0200009 12.3,12.84 C12.0399987,11.9799957 11.5600035,11.55 10.86,11.55 L9.39,11.52 C8.5499958,11.52 7.9200021,11.5299999 7.5,11.55 C7.299999,11.5700001 7.13500065,11.6399994 7.005,11.76 C6.87499935,11.8800006 6.81,12.0599988 6.81,12.3 C6.81,14.8200126 6.8399997,16.7199936 6.9,18 C6.9200001,18.6600033 7.0799985,19.1549983 7.38,19.485 C7.6800015,19.8150016 8.2099962,20.0499993 8.97,20.19 C9.2700015,20.2500003 9.4899993,20.3249996 9.63,20.415 C9.7700007,20.5050004 9.84,20.6199993 9.84,20.76 C9.84,21.0000012 9.5900025,21.12 9.09,21.12 C8.7099981,21.12 8.320002,21.1050001 7.92,21.075 C7.519998,21.0449998 7.2300009,21.03 7.05,21.03 C6.5499975,20.9699997 6.0400026,20.94 5.52,20.94 C4.8799968,20.94 4.260003,20.9699997 3.66,21.03 C3.459999,21.03 3.1500021,21.0449998 2.73,21.075 C2.3099979,21.1050001 1.9100019,21.12 1.53,21.12 Z M16.19,21.15 C15.9499988,21.15 15.7500008,21.1150004 15.59,21.045 C15.4299992,20.9749997 15.35,20.8700007 15.35,20.73 C15.35,20.4499986 15.649997,20.2200009 16.25,20.04 C16.8300029,19.8799992 17.3349979,19.6300017 17.765,19.29 C18.1950022,18.9499983 18.5399987,18.4700031 18.8,17.85 C19.8400052,15.4699881 20.764996,13.2550103 21.575,11.205 C22.3850041,9.15498975 23.2799951,6.7700136 24.26,4.05 C24.5400014,3.3299964 24.7199996,2.670003 24.8,2.07 C25.3800029,1.9299993 25.8599981,1.760001 26.24,1.56 C26.4800012,1.4399994 26.6749993,1.25500125 26.825,1.005 C26.9750008,0.75499875 27.0699998,0.6000003 27.11,0.54 C27.2300006,0.4599996 27.3199997,0.4799994 27.38,0.6 C27.4400003,0.7000005 27.4899998,0.8199993 27.53,0.96 C27.5700002,1.1000007 27.5999999,1.2199995 27.62,1.32 C28.820006,5.1400191 30.3899903,9.9199713 32.33,15.66 L32.93,17.43 C33.2500016,18.3500046 33.6299978,18.9899982 34.07,19.35 C34.5100022,19.7100018 35.0799965,19.9599993 35.78,20.1 C36.0800015,20.1600003 36.3049993,20.2499994 36.455,20.37 C36.6050008,20.4900006 36.68,20.6299992 36.68,20.79 C36.68,21.0100011 36.4200026,21.12 35.9,21.12 L34.04,21.06 C33.1799957,20.9999997 32.3300042,20.97 31.49,20.97 L29.45,21 C29.049998,21.0200001 28.5200033,21.03 27.86,21.03 C27.6199988,21.03 27.4250008,20.9950004 27.275,20.925 C27.1249993,20.8549997 27.05,20.7600006 27.05,20.64 C27.05,20.4999993 27.1349992,20.3750006 27.305,20.265 C27.4750009,20.1549994 27.6899987,20.0800002 27.95,20.04 C28.6500035,19.9199994 29.1499985,19.7400012 29.45,19.5 C29.7500015,19.2599988 29.8700003,18.940002 29.81,18.54 C29.7899999,18.1799982 29.685001,17.6350037 29.495,16.905 C29.3049991,16.1749964 29.1200009,15.4600035 28.94,14.76 C28.8999998,14.6599995 28.8300005,14.4300018 28.73,14.07 C28.6899998,13.9299993 28.6200005,13.8350003 28.52,13.785 C28.4199995,13.7349998 28.2500012,13.71 28.01,13.71 L22.46,13.71 C22.259999,13.71 22.0900007,13.8799983 21.95,14.22 C21.749999,14.820003 21.5200013,15.5649956 21.26,16.455 C20.9999987,17.3450044 20.8500002,17.9299986 20.81,18.21 C20.6899994,19.1300046 21.2799935,19.7499984 22.58,20.07 C23.180003,20.2100007 23.48,20.4099987 23.48,20.67 C23.48,20.9100012 23.2100027,21.03 22.67,21.03 C22.1699975,21.03 21.7700015,21.0200001 21.47,21 L19.76,20.97 C19.4599985,20.97 19.110002,20.9799999 18.71,21 C18.309998,21.0200001 18.010001,21.0399999 17.81,21.06 C17.2499972,21.1200003 16.7100026,21.15 16.19,21.15 Z M27.68,12.48 C27.8000006,12.48 27.8999996,12.4700001 27.98,12.45 C28.0600004,12.4299999 28.1,12.3900003 28.1,12.33 C28.1,12.3099999 28.0800002,12.200001 28.04,12 L25.82,4.89 C25.7199995,4.5699984 25.6400003,4.41 25.58,4.41 C25.5399998,4.41 25.4700005,4.5599985 25.37,4.86 L22.76,12 L22.7,12.24 C22.7,12.3400005 22.7499995,12.4049999 22.85,12.435 C22.9500005,12.4650002 23.099999,12.48 23.3,12.48 L27.68,12.48 Z M39.7,21.12 C39.1799974,21.12 38.92,21.0000012 38.92,20.76 C38.92,20.6199993 38.9899993,20.5050005 39.13,20.415 C39.2700007,20.3249996 39.4899985,20.2500003 39.79,20.19 C40.5700039,20.0499993 41.1349983,19.8250016 41.485,19.515 C41.8350018,19.2049985 42.01,18.7200033 42.01,18.06 L42.01,4.5 C42.01,3.8199966 41.8700014,3.33500145 41.59,3.045 C41.3099986,2.75499855 40.7900038,2.5300008 40.03,2.37 C39.4499971,2.2499994 39.16,2.0500014 39.16,1.77 C39.16,1.5099987 39.4099975,1.38 39.91,1.38 C40.4500027,1.38 41.1399958,1.3999998 41.98,1.44 C42.7400038,1.4800002 43.319998,1.5 43.72,1.5 L45.4,1.47 C46.1600038,1.4299998 46.8199972,1.41 47.38,1.41 C47.9000026,1.41 48.16,1.5299988 48.16,1.77 C48.16,2.0500014 47.8700029,2.2499994 47.29,2.37 C46.489996,2.5300008 45.9400015,2.7599985 45.64,3.06 C45.3399985,3.3600015 45.19,3.8399967 45.19,4.5 L45.19,18.06 C45.19,18.7000032 45.3649983,19.1699985 45.715,19.47 C46.0650018,19.7700015 46.639996,20.0099991 47.44,20.19 C47.7400015,20.2500003 47.9599993,20.3249996 48.1,20.415 C48.2400007,20.5050005 48.31,20.6199993 48.31,20.76 C48.31,21.0000012 48.0600025,21.12 47.56,21.12 C46.8399964,21.12 46.1600032,21.0900003 45.52,21.03 C44.719996,20.9899998 44.120002,20.97 43.72,20.97 C43.2799978,20.97 42.6400042,20.9899998 41.8,21.03 C41.1399967,21.0900003 40.4400037,21.12 39.7,21.12 Z M70.02,21.63 C68.9399946,21.63 68.0250038,21.4700016 67.275,21.15 C66.5249963,20.8299984 65.8800027,20.3200035 65.34,19.62 C64.5199959,18.5999949 63.810003,17.6600043 63.21,16.8 C62.609997,15.9399957 61.8900042,14.8000071 61.05,13.38 C60.7899987,12.8999976 60.4200024,12.5300013 59.94,12.27 C59.4399975,12.0299988 58.8100038,11.8600005 58.05,11.76 C57.7699986,11.76 57.63,11.959998 57.63,12.36 L57.63,17.79 C57.63,18.4500033 57.7949984,18.979998 58.125,19.38 C58.4550017,19.780002 58.9999962,20.0499993 59.76,20.19 C60.0600015,20.2500003 60.2799993,20.3249996 60.42,20.415 C60.5600007,20.5050004 60.63,20.6199993 60.63,20.76 C60.63,21.0000012 60.3700026,21.12 59.85,21.12 C59.649999,21.12 58.9800057,21.0900003 57.84,21.03 C57.3399975,20.9699997 56.8300026,20.94 56.31,20.94 C55.6299966,20.94 54.9700032,20.9699997 54.33,21.03 C54.129999,21.03 53.8200021,21.0449998 53.4,21.075 C52.9799979,21.1050001 52.5900018,21.12 52.23,21.12 C51.7099974,21.12 51.45,21.0000012 51.45,20.76 C51.45,20.6199993 51.5199993,20.5050004 51.66,20.415 C51.8000007,20.3249996 52.0199985,20.2500003 52.32,20.19 C53.1000039,20.0499993 53.6499984,19.8250016 53.97,19.515 C54.2900016,19.2049985 54.45,18.7100034 54.45,18.03 L54.45,5.01 C54.45,4.2899964 54.4100004,3.76500165 54.33,3.435 C54.2499996,3.10499835 54.0900012,2.86500075 53.85,2.715 C53.6099988,2.56499925 53.2100028,2.4500004 52.65,2.37 C52.3499985,2.3499999 52.1250008,2.2800006 51.975,2.16 C51.8249993,2.0399994 51.75,1.9100007 51.75,1.77 C51.75,1.6499994 51.8249993,1.55500035 51.975,1.485 C52.1250008,1.41499965 52.3099989,1.38 52.53,1.38 C53.1700032,1.38 53.8099968,1.3999998 54.45,1.44 L55.89,1.47 C56.2300017,1.47 56.699997,1.4500002 57.3,1.41 C58.0600038,1.3299996 58.8199962,1.29 59.58,1.29 C61.8400113,1.29 63.5599941,1.6999959 64.74,2.52 C65.9200059,3.3400041 66.51,4.5599919 66.51,6.18 C66.51,7.4000061 66.1600035,8.40499605 65.46,9.195 C64.7599965,9.98500395 63.9000051,10.6099977 62.88,11.07 C62.8199997,11.0900001 62.79,11.1399996 62.79,11.22 L62.85,11.46 C64.050006,13.2800091 65.0449961,14.7049949 65.835,15.735 C66.625004,16.7650052 67.5799944,17.7899949 68.7,18.81 C69.2200026,19.2900024 69.7499973,19.5899994 70.29,19.71 C70.8300027,19.8300006 71.5399956,19.89 72.42,19.89 C72.7200015,19.89 72.87,20.0299986 72.87,20.31 C72.87,20.7700023 72.5800029,21.104999 72,21.315 C71.4199971,21.5250011 70.7600037,21.63 70.02,21.63 Z M59.07,10.98 C60.3100062,10.98 61.3049963,10.5700041 62.055,9.75 C62.8050038,8.9299959 63.18,7.920006 63.18,6.72 C63.18,5.2999929 62.8900029,4.21500375 62.31,3.465 C61.7299971,2.71499625 60.6800076,2.34 59.16,2.34 C58.5999972,2.34 58.225001,2.5299981 58.035,2.91 C57.8449991,3.2900019 57.7300002,4.0299945 57.69,5.13 C57.6499998,6.4100064 57.63,7.9999905 57.63,9.9 C57.63,10.3400022 57.7449989,10.6299993 57.975,10.77 C58.2050012,10.9100007 58.5699975,10.98 59.07,10.98 Z M76.13,21.12 C75.6099974,21.12 75.35,21.0000012 75.35,20.76 C75.35,20.6199993 75.4199993,20.5050004 75.56,20.415 C75.7000007,20.3249996 75.9199985,20.2500003 76.22,20.19 C77.0000039,20.0499993 77.5499984,19.8250015 77.87,19.515 C78.1900016,19.2049985 78.35,18.7100034 78.35,18.03 L78.35,5.1 C78.35,4.2399957 78.2250013,3.60500205 77.975,3.195 C77.7249988,2.78499795 77.2500035,2.5100007 76.55,2.37 C75.949997,2.2499994 75.65,2.0500014 75.65,1.77 C75.65,1.6499994 75.7249993,1.55500035 75.875,1.485 C76.0250008,1.41499965 76.2099989,1.38 76.43,1.38 C77.0100029,1.38 77.6399966,1.3999998 78.32,1.44 L79.79,1.47 C80.2100021,1.47 80.819996,1.4300004 81.62,1.35 C82.3800038,1.2699996 82.9699979,1.23 83.39,1.23 C85.7500118,1.23 87.6249931,1.7199951 89.015,2.7 C90.405007,3.6800049 91.1,5.0299914 91.1,6.75 C91.1,8.0300064 90.8450026,9.18499485 90.335,10.215 C89.8249975,11.2450051 89.0550052,12.0649969 88.025,12.675 C86.9949949,13.2850031 85.7200076,13.59 84.2,13.59 C83.7599978,13.59 83.4100013,13.5250006 83.15,13.395 C82.8899987,13.2649993 82.76,13.1200008 82.76,12.96 C82.76,12.8599995 82.8199994,12.7600005 82.94,12.66 C83.0600006,12.5599995 83.1699995,12.51 83.27,12.51 C83.3700005,12.51 83.5399988,12.5249999 83.78,12.555 C84.0200012,12.5850001 84.2899985,12.6 84.59,12.6 C85.6500053,12.6 86.4599972,12.1200048 87.02,11.16 C87.5800028,10.1999952 87.86,8.8600086 87.86,7.14 C87.86,5.5199919 87.460004,4.3000041 86.66,3.48 C85.859996,2.6599959 84.7700069,2.25 83.39,2.25 C82.1699939,2.25 81.56,2.6999955 81.56,3.6 L81.53,17.79 C81.53,18.4900035 81.6949984,19.0299981 82.025,19.41 C82.3550017,19.7900019 82.8999962,20.0499993 83.66,20.19 C83.9600015,20.2500003 84.1799993,20.3249996 84.32,20.415 C84.4600007,20.5050004 84.53,20.6199993 84.53,20.76 C84.53,21.0000012 84.2700026,21.12 83.75,21.12 C83.549999,21.12 82.8800057,21.0900003 81.74,21.03 C81.2399975,20.9699997 80.7300026,20.94 80.21,20.94 C79.5299966,20.94 78.8700032,20.9699997 78.23,21.03 C78.029999,21.03 77.7200021,21.0449998 77.3,21.075 C76.8799979,21.1050001 76.4900018,21.12 76.13,21.12 Z M105.13,21.42 C103.349991,21.42 101.685008,21.0050042 100.135,20.175 C98.5849923,19.3449959 97.3450047,18.1800075 96.415,16.68 C95.4849954,15.1799925 95.02,13.4700096 95.02,11.55 C95.02,9.7099908 95.424996,7.990008 96.235,6.39 C97.0450041,4.789992 98.2349922,3.50500485 99.805,2.535 C101.375008,1.56499515 103.239989,1.08 105.4,1.08 C107.200009,1.08 108.874992,1.49499585 110.425,2.325 C111.975008,3.15500415 113.214995,4.3199925 114.145,5.82 C115.075005,7.3200075 115.54,9.0299904 115.54,10.95 C115.54,12.7900092 115.135004,14.509992 114.325,16.11 C113.514996,17.710008 112.325008,18.9949952 110.755,19.965 C109.184992,20.9350049 107.310011,21.42 105.13,21.42 Z M105.61,20.16 C107.65001,20.16 109.209995,19.4700069 110.29,18.09 C111.370005,16.7099931 111.91,14.8300119 111.91,12.45 C111.91,10.6099908 111.645003,8.9300076 111.115,7.41 C110.584997,5.8899924 109.795005,4.67500455 108.745,3.765 C107.694995,2.85499545 106.410008,2.4 104.89,2.4 C102.86999,2.4 101.325005,3.08499315 100.255,4.455 C99.1849947,5.82500685 98.65,7.6799883 98.65,10.02 C98.65,11.8600092 98.9099974,13.5499923 99.43,15.09 C99.9500026,16.6300077 100.734995,17.8599954 101.785,18.78 C102.835005,19.7000046 104.109993,20.16 105.61,20.16 Z M137.91,21.63 C136.829995,21.63 135.915004,21.4700016 135.165,21.15 C134.414996,20.8299984 133.770003,20.3200035 133.23,19.62 C132.409996,18.5999949 131.700003,17.6600043 131.1,16.8 C130.499997,15.9399957 129.780004,14.8000071 128.94,13.38 C128.679999,12.8999976 128.310002,12.5300013 127.83,12.27 C127.329998,12.0299988 126.700004,11.8600005 125.94,11.76 C125.659999,11.76 125.52,11.959998 125.52,12.36 L125.52,17.79 C125.52,18.4500033 125.684998,18.979998 126.015,19.38 C126.345002,19.780002 126.889996,20.0499993 127.65,20.19 C127.950002,20.2500003 128.169999,20.3249996 128.31,20.415 C128.450001,20.5050004 128.52,20.6199993 128.52,20.76 C128.52,21.0000012 128.260003,21.12 127.74,21.12 C127.539999,21.12 126.870006,21.0900003 125.73,21.03 C125.229998,20.9699997 124.720003,20.94 124.2,20.94 C123.519997,20.94 122.860003,20.9699997 122.22,21.03 C122.019999,21.03 121.710002,21.0449998 121.29,21.075 C120.869998,21.1050001 120.480002,21.12 120.12,21.12 C119.599997,21.12 119.34,21.0000012 119.34,20.76 C119.34,20.6199993 119.409999,20.5050004 119.55,20.415 C119.690001,20.3249996 119.909999,20.2500003 120.21,20.19 C120.990004,20.0499993 121.539998,19.8250016 121.86,19.515 C122.180002,19.2049985 122.34,18.7100034 122.34,18.03 L122.34,5.01 C122.34,4.2899964 122.3,3.76500165 122.22,3.435 C122.14,3.10499835 121.980001,2.86500075 121.74,2.715 C121.499999,2.56499925 121.100003,2.4500004 120.54,2.37 C120.239999,2.3499999 120.015001,2.2800006 119.865,2.16 C119.714999,2.0399994 119.64,1.9100007 119.64,1.77 C119.64,1.6499994 119.714999,1.55500035 119.865,1.485 C120.015001,1.41499965 120.199999,1.38 120.42,1.38 C121.060003,1.38 121.699997,1.3999998 122.34,1.44 L123.78,1.47 C124.120002,1.47 124.589997,1.4500002 125.19,1.41 C125.950004,1.3299996 126.709996,1.29 127.47,1.29 C129.730011,1.29 131.449994,1.6999959 132.63,2.52 C133.810006,3.3400041 134.4,4.5599919 134.4,6.18 C134.4,7.4000061 134.050004,8.40499605 133.35,9.195 C132.649997,9.98500395 131.790005,10.6099977 130.77,11.07 C130.71,11.0900001 130.68,11.1399996 130.68,11.22 L130.74,11.46 C131.940006,13.2800091 132.934996,14.7049949 133.725,15.735 C134.515004,16.7650052 135.469994,17.7899949 136.59,18.81 C137.110003,19.2900024 137.639997,19.5899994 138.18,19.71 C138.720003,19.8300006 139.429996,19.89 140.31,19.89 C140.610002,19.89 140.76,20.0299986 140.76,20.31 C140.76,20.7700023 140.470003,21.104999 139.89,21.315 C139.309997,21.5250011 138.650004,21.63 137.91,21.63 Z M126.96,10.98 C128.200006,10.98 129.194996,10.5700041 129.945,9.75 C130.695004,8.9299959 131.07,7.920006 131.07,6.72 C131.07,5.2999929 130.780003,4.21500375 130.2,3.465 C129.619997,2.71499625 128.570008,2.34 127.05,2.34 C126.489997,2.34 126.115001,2.5299981 125.925,2.91 C125.734999,3.2900019 125.62,4.0299945 125.58,5.13 C125.54,6.4100064 125.52,7.9999905 125.52,9.9 C125.52,10.3400022 125.634999,10.6299993 125.865,10.77 C126.095001,10.9100007 126.459998,10.98 126.96,10.98 Z M148.94,21.12 C148.399997,21.12 148.13,21.0000012 148.13,20.76 C148.13,20.6199993 148.199999,20.5050004 148.34,20.415 C148.480001,20.3249996 148.709998,20.2500003 149.03,20.19 C149.830004,20.0499993 150.409998,19.8100017 150.77,19.47 C151.130002,19.1299983 151.31,18.6300033 151.31,17.97 L151.31,6.09 C151.31,4.8299937 151.27,3.9900021 151.19,3.57 C151.11,3.1499979 150.960001,2.9100003 150.74,2.85 C150.419998,2.7699996 149.800005,2.73 148.88,2.73 L147.71,2.73 C147.169997,2.73 146.645003,2.8499988 146.135,3.09 C145.624997,3.3300012 145.250001,3.649998 145.01,4.05 C144.449997,4.8900042 143.990002,5.31 143.63,5.31 C143.429999,5.31 143.33,5.1700014 143.33,4.89 C143.33,4.7299992 143.389999,4.5100014 143.51,4.23 C143.830002,3.6099969 144.059999,3.05500245 144.2,2.565 C144.340001,2.07499755 144.45,1.5000033 144.53,0.84 C144.59,0.3599976 144.789998,0.12 145.13,0.12 C145.230001,0.12 145.374999,0.2599986 145.565,0.54 C145.755001,0.8200014 145.88,1.0099995 145.94,1.11 C146.080001,1.2900009 146.364998,1.4299995 146.795,1.53 C147.225002,1.6300005 147.649998,1.68 148.07,1.68 L158.9,1.65 C160.040006,1.65 160.889997,1.5100014 161.45,1.23 C161.690001,1.0699992 161.85,0.9500004 161.93,0.87 C161.97,0.8499999 162.064999,0.78500055 162.215,0.675 C162.365001,0.56499945 162.539999,0.51 162.74,0.51 C162.82,0.51 162.88,0.57499935 162.92,0.705 C162.96,0.83500065 162.98,0.9799992 162.98,1.14 C162.98,1.2800007 162.95,1.5299982 162.89,1.89 L162.68,2.79 C162.62,3.0100011 162.57,3.22499895 162.53,3.435 C162.49,3.64500105 162.47,3.8799987 162.47,4.14 L162.47,4.56 C162.47,4.8200013 162.425,5.05499895 162.335,5.265 C162.245,5.47500105 162.130001,5.58 161.99,5.58 C161.829999,5.58 161.705,5.48500095 161.615,5.295 C161.525,5.10499905 161.420001,4.7900022 161.3,4.35 C161.179999,3.8099973 160.905002,3.40500135 160.475,3.135 C160.044998,2.86499865 159.380005,2.73 158.48,2.73 L155.96,2.73 C155.519998,2.73 155.200001,2.79499935 155,2.925 C154.799999,3.05500065 154.665,3.3499977 154.595,3.81 C154.525,4.2700023 154.49,5.0299947 154.49,6.09 L154.49,17.97 C154.49,18.6100032 154.674998,19.0949983 155.045,19.425 C155.415002,19.7550016 155.999996,20.0099991 156.8,20.19 C157.100002,20.2500003 157.319999,20.3249996 157.46,20.415 C157.600001,20.5050004 157.67,20.6199993 157.67,20.76 C157.67,21.0000012 157.410003,21.12 156.89,21.12 C156.149996,21.12 155.460003,21.0900003 154.82,21.03 C154.019996,20.9899998 153.420002,20.97 153.02,20.97 C152.559998,20.97 151.910004,20.9899998 151.07,21.03 C150.409997,21.0900003 149.700004,21.12 148.94,21.12 Z" id="Fairport" fill="#777777"></path>
    </g>
</svg>