<?xml version="1.0" encoding="UTF-8"?>
<svg width="215px" height="48px" viewBox="0 0 215 48" version="1.1" xmlns="http://www.w3.org/2000/svg" xmlns:xlink="http://www.w3.org/1999/xlink">
    <!-- Generator: Sketch 49.3 (51167) - http://www.bohemiancoding.com/sketch -->
    <title>Logo</title>
    <desc>Created with Sketch.</desc>
    <defs></defs>
    <g id="Logo" stroke="none" stroke-width="1" fill="none" fill-rule="evenodd">
        <g>
            <path d="M53.53,39.12 C53.0299975,39.12 52.78,39.0000012 52.78,38.76 C52.78,38.6199993 52.8499993,38.5050004 52.99,38.415 C53.1300007,38.3249996 53.3499985,38.2500003 53.65,38.19 C54.4100038,38.0499993 54.9299986,37.8300015 55.21,37.53 C55.4900014,37.2299985 55.63,36.7300035 55.63,36.03 L55.63,23.1 C55.63,22.2399957 55.5050012,21.6050021 55.255,21.195 C55.0049987,20.7849979 54.5300035,20.5100007 53.83,20.37 C53.229997,20.2499994 52.93,20.0500014 52.93,19.77 C52.93,19.6499994 53.0049992,19.5550004 53.155,19.485 C53.3050007,19.4149996 53.4899989,19.38 53.71,19.38 C54.4100035,19.38 55.259995,19.3999998 56.26,19.44 C57.260005,19.4800002 58.0499971,19.5 58.63,19.5 L62.95,19.5 C63.5700031,19.5 64.279996,19.4400006 65.08,19.32 C65.680003,19.2399996 66.0599992,19.2 66.22,19.2 C66.3600007,19.2 66.4949994,19.2299997 66.625,19.29 C66.7550006,19.3500003 66.8299999,19.4399994 66.85,19.56 C66.8900002,20.1200028 66.9249999,20.7149969 66.955,21.345 C66.9850002,21.9750031 67,22.5099978 67,22.95 C67,23.1300009 66.9700003,23.2799994 66.91,23.4 C66.8499997,23.5200006 66.7800004,23.58 66.7,23.58 C66.5799994,23.58 66.4700005,23.5400004 66.37,23.46 C66.2699995,23.3799996 66.2100001,23.2800006 66.19,23.16 C65.9699989,22.359996 65.7000016,21.7700019 65.38,21.39 C64.8599974,20.8699974 64.1700043,20.61 63.31,20.61 L60.04,20.61 C59.5999978,20.61 59.2900009,20.7399987 59.11,21 C58.9299991,21.2600013 58.8300001,21.6199977 58.81,22.08 L58.81,27.78 C58.81,28.2200022 58.9599985,28.44 59.26,28.44 L61.21,28.41 C61.5500017,28.3899999 61.9899973,28.38 62.53,28.38 C63.3500041,28.38 63.959998,27.9300045 64.36,27.03 C64.4000002,26.9299995 64.4799994,26.8200006 64.6,26.7 C64.7200006,26.5799994 64.8199996,26.52 64.9,26.52 C65.0000005,26.52 65.0949995,26.5699995 65.185,26.67 C65.2750004,26.7700005 65.3100001,26.8999992 65.29,27.06 C65.2299997,27.8000037 65.2,28.4099976 65.2,28.89 C65.2,29.3700024 65.2299997,30.0499956 65.29,30.93 C65.29,31.3500021 65.2000009,31.56 65.02,31.56 C64.8399991,31.56 64.6900006,31.4850007 64.57,31.335 C64.4499994,31.1849992 64.3600003,31.0200009 64.3,30.84 C64.0399987,29.9799957 63.5600035,29.55 62.86,29.55 L61.39,29.52 C60.5499958,29.52 59.9200021,29.5299999 59.5,29.55 C59.299999,29.5700001 59.1350007,29.6399994 59.005,29.76 C58.8749993,29.8800006 58.81,30.0599988 58.81,30.3 C58.81,32.8200126 58.8399997,34.7199936 58.9,36 C58.9200001,36.6600033 59.0799985,37.1549983 59.38,37.485 C59.6800015,37.8150016 60.2099962,38.0499993 60.97,38.19 C61.2700015,38.2500003 61.4899993,38.3249996 61.63,38.415 C61.7700007,38.5050004 61.84,38.6199993 61.84,38.76 C61.84,39.0000012 61.5900025,39.12 61.09,39.12 C60.7099981,39.12 60.320002,39.1050001 59.92,39.075 C59.519998,39.0449998 59.2300009,39.03 59.05,39.03 C58.5499975,38.9699997 58.0400026,38.94 57.52,38.94 C56.8799968,38.94 56.260003,38.9699997 55.66,39.03 C55.459999,39.03 55.1500021,39.0449998 54.73,39.075 C54.3099979,39.1050001 53.9100019,39.12 53.53,39.12 Z M68.19,39.15 C67.9499988,39.15 67.7500008,39.1150004 67.59,39.045 C67.4299992,38.9749997 67.35,38.8700007 67.35,38.73 C67.35,38.4499986 67.649997,38.2200009 68.25,38.04 C68.8300029,37.8799992 69.3349979,37.6300017 69.765,37.29 C70.1950021,36.9499983 70.5399987,36.4700031 70.8,35.85 C71.8400052,33.4699881 72.7649959,31.2550102 73.575,29.205 C74.385004,27.1549897 75.2799951,24.7700136 76.26,22.05 C76.5400014,21.3299964 76.7199996,20.670003 76.8,20.07 C77.3800029,19.9299993 77.8599981,19.760001 78.24,19.56 C78.4800012,19.4399994 78.6749992,19.2550012 78.825,19.005 C78.9750007,18.7549987 79.0699998,18.6000003 79.11,18.54 C79.2300006,18.4599996 79.3199997,18.4799994 79.38,18.6 C79.4400003,18.7000005 79.4899998,18.8199993 79.53,18.96 C79.5700002,19.1000007 79.5999999,19.2199995 79.62,19.32 C80.820006,23.1400191 82.3899903,27.9199713 84.33,33.66 L84.93,35.43 C85.2500016,36.3500046 85.6299978,36.9899982 86.07,37.35 C86.5100022,37.7100018 87.0799965,37.9599993 87.78,38.1 C88.0800015,38.1600003 88.3049992,38.2499994 88.455,38.37 C88.6050008,38.4900006 88.68,38.6299992 88.68,38.79 C88.68,39.0100011 88.4200026,39.12 87.9,39.12 L86.04,39.06 C85.1799957,38.9999997 84.3300042,38.97 83.49,38.97 L81.45,39 C81.049998,39.0200001 80.5200033,39.03 79.86,39.03 C79.6199988,39.03 79.4250007,38.9950003 79.275,38.925 C79.1249993,38.8549996 79.05,38.7600006 79.05,38.64 C79.05,38.4999993 79.1349991,38.3750005 79.305,38.265 C79.4750009,38.1549994 79.6899987,38.0800002 79.95,38.04 C80.6500035,37.9199994 81.1499985,37.7400012 81.45,37.5 C81.7500015,37.2599988 81.8700003,36.940002 81.81,36.54 C81.7899999,36.1799982 81.685001,35.6350037 81.495,34.905 C81.304999,34.1749964 81.1200009,33.4600035 80.94,32.76 C80.8999998,32.6599995 80.8300005,32.4300018 80.73,32.07 C80.6899998,31.9299993 80.6200005,31.8350002 80.52,31.785 C80.4199995,31.7349998 80.2500012,31.71 80.01,31.71 L74.46,31.71 C74.259999,31.71 74.0900007,31.8799983 73.95,32.22 C73.749999,32.820003 73.5200013,33.5649955 73.26,34.455 C72.9999987,35.3450044 72.8500002,35.9299986 72.81,36.21 C72.6899994,37.1300046 73.2799935,37.7499984 74.58,38.07 C75.180003,38.2100007 75.48,38.4099987 75.48,38.67 C75.48,38.9100012 75.2100027,39.03 74.67,39.03 C74.1699975,39.03 73.7700015,39.0200001 73.47,39 L71.76,38.97 C71.4599985,38.97 71.110002,38.9799999 70.71,39 C70.309998,39.0200001 70.010001,39.0399999 69.81,39.06 C69.2499972,39.1200003 68.7100026,39.15 68.19,39.15 Z M79.68,30.48 C79.8000006,30.48 79.8999996,30.4700001 79.98,30.45 C80.0600004,30.4299999 80.1,30.3900003 80.1,30.33 C80.1,30.3099999 80.0800002,30.200001 80.04,30 L77.82,22.89 C77.7199995,22.5699984 77.6400003,22.41 77.58,22.41 C77.5399998,22.41 77.4700005,22.5599985 77.37,22.86 L74.76,30 L74.7,30.24 C74.7,30.3400005 74.7499995,30.4049999 74.85,30.435 C74.9500005,30.4650002 75.099999,30.48 75.3,30.48 L79.68,30.48 Z M91.7,39.12 C91.1799974,39.12 90.92,39.0000012 90.92,38.76 C90.92,38.6199993 90.9899993,38.5050004 91.13,38.415 C91.2700007,38.3249996 91.4899985,38.2500003 91.79,38.19 C92.5700039,38.0499993 93.1349982,37.8250016 93.485,37.515 C93.8350018,37.2049985 94.01,36.7200033 94.01,36.06 L94.01,22.5 C94.01,21.8199966 93.8700014,21.3350015 93.59,21.045 C93.3099986,20.7549986 92.7900038,20.5300008 92.03,20.37 C91.4499971,20.2499994 91.16,20.0500014 91.16,19.77 C91.16,19.5099987 91.4099975,19.38 91.91,19.38 C92.4500027,19.38 93.1399958,19.3999998 93.98,19.44 C94.7400038,19.4800002 95.319998,19.5 95.72,19.5 L97.4,19.47 C98.1600038,19.4299998 98.8199972,19.41 99.38,19.41 C99.9000026,19.41 100.16,19.5299988 100.16,19.77 C100.16,20.0500014 99.8700029,20.2499994 99.29,20.37 C98.489996,20.5300008 97.9400015,20.7599985 97.64,21.06 C97.3399985,21.3600015 97.19,21.8399967 97.19,22.5 L97.19,36.06 C97.19,36.7000032 97.3649982,37.1699985 97.715,37.47 C98.0650017,37.7700015 98.639996,38.0099991 99.44,38.19 C99.7400015,38.2500003 99.9599993,38.3249996 100.1,38.415 C100.240001,38.5050004 100.31,38.6199993 100.31,38.76 C100.31,39.0000012 100.060002,39.12 99.56,39.12 C98.8399964,39.12 98.1600032,39.0900003 97.52,39.03 C96.719996,38.9899998 96.120002,38.97 95.72,38.97 C95.2799978,38.97 94.6400042,38.9899998 93.8,39.03 C93.1399967,39.0900003 92.4400037,39.12 91.7,39.12 Z M122.02,39.63 C120.939995,39.63 120.025004,39.4700016 119.275,39.15 C118.524996,38.8299984 117.880003,38.3200035 117.34,37.62 C116.519996,36.5999949 115.810003,35.6600043 115.21,34.8 C114.609997,33.9399957 113.890004,32.8000071 113.05,31.38 C112.789999,30.8999976 112.420002,30.5300013 111.94,30.27 C111.439997,30.0299988 110.810004,29.8600005 110.05,29.76 C109.769999,29.76 109.63,29.959998 109.63,30.36 L109.63,35.79 C109.63,36.4500033 109.794998,36.979998 110.125,37.38 C110.455002,37.780002 110.999996,38.0499993 111.76,38.19 C112.060001,38.2500003 112.279999,38.3249996 112.42,38.415 C112.560001,38.5050004 112.63,38.6199993 112.63,38.76 C112.63,39.0000012 112.370003,39.12 111.85,39.12 C111.649999,39.12 110.980006,39.0900003 109.84,39.03 C109.339997,38.9699997 108.830003,38.94 108.31,38.94 C107.629997,38.94 106.970003,38.9699997 106.33,39.03 C106.129999,39.03 105.820002,39.0449998 105.4,39.075 C104.979998,39.1050001 104.590002,39.12 104.23,39.12 C103.709997,39.12 103.45,39.0000012 103.45,38.76 C103.45,38.6199993 103.519999,38.5050004 103.66,38.415 C103.800001,38.3249996 104.019998,38.2500003 104.32,38.19 C105.100004,38.0499993 105.649998,37.8250016 105.97,37.515 C106.290002,37.2049985 106.45,36.7100034 106.45,36.03 L106.45,23.01 C106.45,22.2899964 106.41,21.7650017 106.33,21.435 C106.25,21.1049984 106.090001,20.8650008 105.85,20.715 C105.609999,20.5649992 105.210003,20.4500004 104.65,20.37 C104.349998,20.3499999 104.125001,20.2800006 103.975,20.16 C103.824999,20.0399994 103.75,19.9100007 103.75,19.77 C103.75,19.6499994 103.824999,19.5550004 103.975,19.485 C104.125001,19.4149996 104.309999,19.38 104.53,19.38 C105.170003,19.38 105.809997,19.3999998 106.45,19.44 L107.89,19.47 C108.230002,19.47 108.699997,19.4500002 109.3,19.41 C110.060004,19.3299996 110.819996,19.29 111.58,19.29 C113.840011,19.29 115.559994,19.6999959 116.74,20.52 C117.920006,21.3400041 118.51,22.5599919 118.51,24.18 C118.51,25.4000061 118.160003,26.4049961 117.46,27.195 C116.759996,27.9850039 115.900005,28.6099977 114.88,29.07 C114.82,29.0900001 114.79,29.1399996 114.79,29.22 L114.85,29.46 C116.050006,31.2800091 117.044996,32.7049949 117.835,33.735 C118.625004,34.7650052 119.579994,35.7899949 120.7,36.81 C121.220003,37.2900024 121.749997,37.5899994 122.29,37.71 C122.830003,37.8300006 123.539996,37.89 124.42,37.89 C124.720001,37.89 124.87,38.0299986 124.87,38.31 C124.87,38.7700023 124.580003,39.104999 124,39.315 C123.419997,39.5250011 122.760004,39.63 122.02,39.63 Z M111.07,28.98 C112.310006,28.98 113.304996,28.5700041 114.055,27.75 C114.805004,26.9299959 115.18,25.920006 115.18,24.72 C115.18,23.2999929 114.890003,22.2150038 114.31,21.465 C113.729997,20.7149962 112.680008,20.34 111.16,20.34 C110.599997,20.34 110.225001,20.5299981 110.035,20.91 C109.844999,21.2900019 109.73,22.0299945 109.69,23.13 C109.65,24.4100064 109.63,25.9999905 109.63,27.9 C109.63,28.3400022 109.744999,28.6299993 109.975,28.77 C110.205001,28.9100007 110.569997,28.98 111.07,28.98 Z M128.13,39.12 C127.609997,39.12 127.35,39.0000012 127.35,38.76 C127.35,38.6199993 127.419999,38.5050004 127.56,38.415 C127.700001,38.3249996 127.919998,38.2500003 128.22,38.19 C129.000004,38.0499993 129.549998,37.8250015 129.87,37.515 C130.190002,37.2049985 130.35,36.7100034 130.35,36.03 L130.35,23.1 C130.35,22.2399957 130.225001,21.6050021 129.975,21.195 C129.724999,20.7849979 129.250003,20.5100007 128.55,20.37 C127.949997,20.2499994 127.65,20.0500014 127.65,19.77 C127.65,19.6499994 127.724999,19.5550004 127.875,19.485 C128.025001,19.4149996 128.209999,19.38 128.43,19.38 C129.010003,19.38 129.639997,19.3999998 130.32,19.44 L131.79,19.47 C132.210002,19.47 132.819996,19.4300004 133.62,19.35 C134.380004,19.2699996 134.969998,19.23 135.39,19.23 C137.750012,19.23 139.624993,19.7199951 141.015,20.7 C142.405007,21.6800049 143.1,23.0299914 143.1,24.75 C143.1,26.0300064 142.845003,27.1849949 142.335,28.215 C141.824997,29.2450051 141.055005,30.0649969 140.025,30.675 C138.994995,31.2850031 137.720008,31.59 136.2,31.59 C135.759998,31.59 135.410001,31.5250006 135.15,31.395 C134.889999,31.2649993 134.76,31.1200008 134.76,30.96 C134.76,30.8599995 134.819999,30.7600005 134.94,30.66 C135.060001,30.5599995 135.17,30.51 135.27,30.51 C135.370001,30.51 135.539999,30.5249999 135.78,30.555 C136.020001,30.5850001 136.289998,30.6 136.59,30.6 C137.650005,30.6 138.459997,30.1200048 139.02,29.16 C139.580003,28.1999952 139.86,26.8600086 139.86,25.14 C139.86,23.5199919 139.460004,22.3000041 138.66,21.48 C137.859996,20.6599959 136.770007,20.25 135.39,20.25 C134.169994,20.25 133.56,20.6999955 133.56,21.6 L133.53,35.79 C133.53,36.4900035 133.694998,37.0299981 134.025,37.41 C134.355002,37.7900019 134.899996,38.0499993 135.66,38.19 C135.960002,38.2500003 136.179999,38.3249996 136.32,38.415 C136.460001,38.5050004 136.53,38.6199993 136.53,38.76 C136.53,39.0000012 136.270003,39.12 135.75,39.12 C135.549999,39.12 134.880006,39.0900003 133.74,39.03 C133.239998,38.9699997 132.730003,38.94 132.21,38.94 C131.529997,38.94 130.870003,38.9699997 130.23,39.03 C130.029999,39.03 129.720002,39.0449998 129.3,39.075 C128.879998,39.1050001 128.490002,39.12 128.13,39.12 Z M157.13,39.42 C155.349991,39.42 153.685008,39.0050041 152.135,38.175 C150.584992,37.3449959 149.345005,36.1800075 148.415,34.68 C147.484995,33.1799925 147.02,31.4700096 147.02,29.55 C147.02,27.7099908 147.424996,25.990008 148.235,24.39 C149.045004,22.789992 150.234992,21.5050049 151.805,20.535 C153.375008,19.5649952 155.239989,19.08 157.4,19.08 C159.200009,19.08 160.874992,19.4949959 162.425,20.325 C163.975008,21.1550041 165.214995,22.3199925 166.145,23.82 C167.075005,25.3200075 167.54,27.0299904 167.54,28.95 C167.54,30.7900092 167.135004,32.509992 166.325,34.11 C165.514996,35.710008 164.325008,36.9949952 162.755,37.965 C161.184992,38.9350048 159.310011,39.42 157.13,39.42 Z M157.61,38.16 C159.65001,38.16 161.209995,37.4700069 162.29,36.09 C163.370005,34.7099931 163.91,32.8300119 163.91,30.45 C163.91,28.6099908 163.645003,26.9300076 163.115,25.41 C162.584997,23.8899924 161.795005,22.6750046 160.745,21.765 C159.694995,20.8549955 158.410008,20.4 156.89,20.4 C154.86999,20.4 153.325005,21.0849932 152.255,22.455 C151.184995,23.8250069 150.65,25.6799883 150.65,28.02 C150.65,29.8600092 150.909997,31.5499923 151.43,33.09 C151.950003,34.6300077 152.734995,35.8599954 153.785,36.78 C154.835005,37.7000046 156.109993,38.16 157.61,38.16 Z M189.91,39.63 C188.829995,39.63 187.915004,39.4700016 187.165,39.15 C186.414996,38.8299984 185.770003,38.3200035 185.23,37.62 C184.409996,36.5999949 183.700003,35.6600043 183.1,34.8 C182.499997,33.9399957 181.780004,32.8000071 180.94,31.38 C180.679999,30.8999976 180.310002,30.5300013 179.83,30.27 C179.329997,30.0299988 178.700004,29.8600005 177.94,29.76 C177.659999,29.76 177.52,29.959998 177.52,30.36 L177.52,35.79 C177.52,36.4500033 177.684998,36.979998 178.015,37.38 C178.345002,37.780002 178.889996,38.0499993 179.65,38.19 C179.950001,38.2500003 180.169999,38.3249996 180.31,38.415 C180.450001,38.5050004 180.52,38.6199993 180.52,38.76 C180.52,39.0000012 180.260003,39.12 179.74,39.12 C179.539999,39.12 178.870006,39.0900003 177.73,39.03 C177.229997,38.9699997 176.720003,38.94 176.2,38.94 C175.519997,38.94 174.860003,38.9699997 174.22,39.03 C174.019999,39.03 173.710002,39.0449998 173.29,39.075 C172.869998,39.1050001 172.480002,39.12 172.12,39.12 C171.599997,39.12 171.34,39.0000012 171.34,38.76 C171.34,38.6199993 171.409999,38.5050004 171.55,38.415 C171.690001,38.3249996 171.909999,38.2500003 172.21,38.19 C172.990004,38.0499993 173.539998,37.8250016 173.86,37.515 C174.180002,37.2049985 174.34,36.7100034 174.34,36.03 L174.34,23.01 C174.34,22.2899964 174.3,21.7650017 174.22,21.435 C174.14,21.1049984 173.980001,20.8650008 173.74,20.715 C173.499999,20.5649992 173.100003,20.4500004 172.54,20.37 C172.239999,20.3499999 172.015001,20.2800006 171.865,20.16 C171.714999,20.0399994 171.64,19.9100007 171.64,19.77 C171.64,19.6499994 171.714999,19.5550004 171.865,19.485 C172.015001,19.4149996 172.199999,19.38 172.42,19.38 C173.060003,19.38 173.699997,19.3999998 174.34,19.44 L175.78,19.47 C176.120002,19.47 176.589997,19.4500002 177.19,19.41 C177.950004,19.3299996 178.709996,19.29 179.47,19.29 C181.730011,19.29 183.449994,19.6999959 184.63,20.52 C185.810006,21.3400041 186.4,22.5599919 186.4,24.18 C186.4,25.4000061 186.050004,26.4049961 185.35,27.195 C184.649996,27.9850039 183.790005,28.6099977 182.77,29.07 C182.71,29.0900001 182.68,29.1399996 182.68,29.22 L182.74,29.46 C183.940006,31.2800091 184.934996,32.7049949 185.725,33.735 C186.515004,34.7650052 187.469994,35.7899949 188.59,36.81 C189.110003,37.2900024 189.639997,37.5899994 190.18,37.71 C190.720003,37.8300006 191.429996,37.89 192.31,37.89 C192.610001,37.89 192.76,38.0299986 192.76,38.31 C192.76,38.7700023 192.470003,39.104999 191.89,39.315 C191.309997,39.5250011 190.650004,39.63 189.91,39.63 Z M178.96,28.98 C180.200006,28.98 181.194996,28.5700041 181.945,27.75 C182.695004,26.9299959 183.07,25.920006 183.07,24.72 C183.07,23.2999929 182.780003,22.2150038 182.2,21.465 C181.619997,20.7149962 180.570008,20.34 179.05,20.34 C178.489997,20.34 178.115001,20.5299981 177.925,20.91 C177.734999,21.2900019 177.62,22.0299945 177.58,23.13 C177.54,24.4100064 177.52,25.9999905 177.52,27.9 C177.52,28.3400022 177.634999,28.6299993 177.865,28.77 C178.095001,28.9100007 178.459997,28.98 178.96,28.98 Z M200.94,39.12 C200.399997,39.12 200.13,39.0000012 200.13,38.76 C200.13,38.6199993 200.199999,38.5050004 200.34,38.415 C200.480001,38.3249996 200.709998,38.2500003 201.03,38.19 C201.830004,38.0499993 202.409998,37.8100017 202.77,37.47 C203.130002,37.1299983 203.31,36.6300033 203.31,35.97 L203.31,24.09 C203.31,22.8299937 203.27,21.9900021 203.19,21.57 C203.11,21.1499979 202.960001,20.9100003 202.74,20.85 C202.419998,20.7699996 201.800005,20.73 200.88,20.73 L199.71,20.73 C199.169997,20.73 198.645003,20.8499988 198.135,21.09 C197.624997,21.3300012 197.250001,21.649998 197.01,22.05 C196.449997,22.8900042 195.990002,23.31 195.63,23.31 C195.429999,23.31 195.33,23.1700014 195.33,22.89 C195.33,22.7299992 195.389999,22.5100014 195.51,22.23 C195.830002,21.6099969 196.059999,21.0550024 196.2,20.565 C196.340001,20.0749976 196.45,19.5000033 196.53,18.84 C196.59,18.3599976 196.789998,18.12 197.13,18.12 C197.23,18.12 197.374999,18.2599986 197.565,18.54 C197.755001,18.8200014 197.88,19.0099995 197.94,19.11 C198.080001,19.2900009 198.364998,19.4299995 198.795,19.53 C199.225002,19.6300005 199.649998,19.68 200.07,19.68 L210.9,19.65 C212.040006,19.65 212.889997,19.5100014 213.45,19.23 C213.690001,19.0699992 213.85,18.9500004 213.93,18.87 C213.97,18.8499999 214.064999,18.7850005 214.215,18.675 C214.365001,18.5649995 214.539999,18.51 214.74,18.51 C214.82,18.51 214.88,18.5749994 214.92,18.705 C214.96,18.8350007 214.98,18.9799992 214.98,19.14 C214.98,19.2800007 214.95,19.5299982 214.89,19.89 L214.68,20.79 C214.62,21.0100011 214.57,21.224999 214.53,21.435 C214.49,21.6450011 214.47,21.8799987 214.47,22.14 L214.47,22.56 C214.47,22.8200013 214.425,23.0549989 214.335,23.265 C214.245,23.475001 214.130001,23.58 213.99,23.58 C213.829999,23.58 213.705,23.4850009 213.615,23.295 C213.525,23.104999 213.420001,22.7900022 213.3,22.35 C213.179999,21.8099973 212.905002,21.4050013 212.475,21.135 C212.044998,20.8649987 211.380004,20.73 210.48,20.73 L207.96,20.73 C207.519998,20.73 207.200001,20.7949993 207,20.925 C206.799999,21.0550007 206.665,21.3499977 206.595,21.81 C206.525,22.2700023 206.49,23.0299947 206.49,24.09 L206.49,35.97 C206.49,36.6100032 206.674998,37.0949983 207.045,37.425 C207.415002,37.7550016 207.999996,38.0099991 208.8,38.19 C209.100001,38.2500003 209.319999,38.3249996 209.46,38.415 C209.600001,38.5050004 209.67,38.6199993 209.67,38.76 C209.67,39.0000012 209.410003,39.12 208.89,39.12 C208.149996,39.12 207.460003,39.0900003 206.82,39.03 C206.019996,38.9899998 205.420002,38.97 205.02,38.97 C204.559998,38.97 203.910004,38.9899998 203.07,39.03 C202.409997,39.0900003 201.700004,39.12 200.94,39.12 Z" id="Fairport" fill="#FFFFFF"></path>
            <g id="Logo-/-Purp" fill="#FFFFFF">
                <path d="M21.4318528,5.21659033 L22.4135108,5.21659033 C22.9818724,5.27229426 23.1739359,5.57504955 23.1739359,5.57504955 C23.3830465,5.75814924 23.3558975,6.05722477 23.3558975,6.05722477 C22.8564818,5.94962356 21.4343783,5.94962356 21.4343783,5.94962356 C21.4343783,5.94962356 19.9976269,5.94962356 19.5153845,6.05722477 C19.5153845,6.05722477 19.4883618,5.75814924 19.6974724,5.57504955 C19.6974724,5.57504955 19.8843587,5.27229426 20.4527202,5.21659033 L21.4318528,5.21659033 Z M3.78823534e-05,21.640113 C3.78823534e-05,9.68901934 9.59285984,8.88217523e-05 21.4245289,8.88217523e-05 C27.5064144,8.88217523e-05 32.9979665,2.5601855 36.8977022,6.67161752 L24.615612,9.42458429 L24.615612,8.98694683 C24.615612,8.98694683 24.6205367,8.78671722 24.4679971,8.66541208 C24.2932332,8.54436073 24.0350018,8.42572024 23.5232112,8.32433656 C22.4627579,8.12664471 21.4294536,8.14872326 21.4294536,8.14872326 C21.4294536,8.14872326 20.7110779,8.14631239 20.068972,8.31811903 C19.1168622,8.57900121 18.2407696,9.06104955 18.2407696,10.9400103 L18.2407696,12.3800647 C17.5668426,12.5320767 16.6564034,12.8646508 16.0512959,13.1823789 C16.0512959,13.1823789 15.5862269,13.3900949 15.6157751,13.791823 L15.6157751,14.2207051 C15.6157751,14.2207051 15.5911516,14.4222036 15.8298104,14.3517807 C15.8298104,14.3517807 18.4770293,13.0908924 21.4343783,13.1045964 C24.3917273,13.0908924 27.0415979,14.3517807 27.0415979,14.3517807 C27.2777312,14.4222036 27.2531077,14.2207051 27.2531077,14.2207051 L27.2531077,13.791823 C27.2850551,13.3900949 26.8201124,13.1823789 26.8201124,13.1823789 C26.2074285,12.8622399 25.2947163,12.5285239 24.615612,12.3776538 L24.615612,11.3503668 L42.0224269,15.6644393 C42.5612402,17.5620526 42.8491461,19.5682822 42.8491461,21.640113 C42.8491461,30.752971 37.2740002,38.5505057 29.3813383,41.7398411 L27.051321,24.4226447 C26.9380528,23.500548 26.9259304,22.8168743 26.3402693,22.5746447 C26.3402693,22.5746447 24.9230904,21.8923668 22.71859,21.8106508 L22.71859,22.8737202 L20.2361595,22.8737202 L20.2361595,21.8007535 C18.6123955,21.9564453 15.9969979,22.8812066 15.8026614,25.6773154 L14.0042598,41.9486991 C5.83101592,38.8990677 3.78823534e-05,30.9581492 3.78823534e-05,21.640113 L3.78823534e-05,21.640113 Z M21.4343783,16.6249831 C21.4343783,16.6249831 16.7769955,16.6980707 16.5432614,20.2259438 L16.4177445,21.6141009 C15.8889069,21.8131885 15.9207281,22.0467897 15.9207281,22.0467897 C15.9207281,22.0467897 15.905954,22.4510556 16.038921,22.3694665 C16.6982002,21.9837263 18.2950677,21.4002943 20.2361595,21.1876296 L20.2361595,20.3953396 L20.7134771,19.9280103 L21.4343783,19.9280103 L22.2537736,19.9280103 L22.7163171,20.3953396 L22.7163171,21.1876296 C25.4742787,21.3247958 27.0095242,22.2494302 27.0095242,22.2494302 C27.0095242,22.2494302 27.080743,22.1085843 27.0759445,21.9219317 C27.0735453,21.7265239 26.5790544,21.4991402 26.5790544,21.4991402 C26.5790544,21.4991402 26.2641257,18.0899076 26.0769869,17.736397 C26.0008434,17.555835 25.872801,17.4100405 25.6735398,17.3309891 C25.6735398,17.3309891 23.880063,16.5941492 21.4343783,16.6249831 L21.4343783,16.6249831 Z M21.4343783,13.8017202 C21.4343783,13.8017202 16.8705649,13.8277323 16.6317798,17.2393758 C16.6317798,17.2393758 18.1276277,16.1763063 21.4343783,16.0921795 C21.4343783,16.0921795 23.7323218,16.0206145 26.1705563,16.9427112 L26.8446096,15.3283124 C26.8446096,15.3283124 27.0340214,15.0391341 26.3083218,14.7485601 C26.3083218,14.7485601 25.3807093,14.3864211 24.19979,14.1169106 C23.3190253,13.9141432 22.2881202,13.7793879 21.4343783,13.8017202 L21.4343783,13.8017202 Z M21.4343783,7.43675347 C22.9400755,7.42685619 24.3621791,7.75828822 25.0363587,7.94608278 L25.4374065,6.89037281 C25.3954834,6.65309184 25.1125022,6.52442719 25.1125022,6.52442719 C24.8838191,6.38231239 24.1824904,6.21177462 24.1824904,6.21177462 C24.1112716,4.59864471 22.1354544,4.6256719 22.1354544,4.6256719 C22.1503547,3.69126707 21.4343783,3.74811299 21.4343783,3.74811299 C21.4343783,3.74811299 20.7209273,3.69126707 20.7333022,4.6256719 C20.7333022,4.6256719 18.7576112,4.59864471 18.6886653,6.21177462 C18.6886653,6.21177462 17.9850638,6.38231239 17.7562544,6.52442719 C17.7562544,6.52442719 17.4683485,6.62961752 17.4265516,6.88415529 L17.8275995,7.94849366 C18.4968544,7.76057221 19.9237563,7.42685619 21.4343783,7.43675347 L21.4343783,7.43675347 Z" id="Icon"></path>
            </g>
        </g>
    </g>
</svg>
