<?xml version="1.0" encoding="UTF-8"?>
<svg width="32px" height="32px" viewBox="0 0 32 32" version="1.1" xmlns="http://www.w3.org/2000/svg" xmlns:xlink="http://www.w3.org/1999/xlink">
    <!-- Generator: Sketch 49.3 (51167) - http://www.bohemiancoding.com/sketch -->
    <title>Combined Shape</title>
    <desc>Created with Sketch.</desc>
    <defs></defs>
    <g id="Symbols" stroke="none" stroke-width="1" fill="none" fill-rule="evenodd" opacity="0.25">
        <g id="footer-content" transform="translate(-765.000000, -39.000000)" fill="#000000">
            <g id="social" transform="translate(728.000000, 39.000000)">
                <path d="M53,32 C44.163444,32 37,24.836556 37,16 C37,7.163444 44.163444,0 53,0 C61.836556,0 69,7.163444 69,16 C69,24.836556 61.836556,32 53,32 Z M61.8311876,10.9566458 C61.2117657,11.223638 60.5389454,11.4158724 59.8447657,11.4906302 C60.5603048,11.0634427 61.1049688,10.3906224 61.3612813,9.58964583 C60.6991407,9.98479427 59.9515626,10.2731458 59.1719454,10.4226615 C58.5418438,9.74984115 57.6447501,9.33333333 56.6515391,9.33333333 C54.7398751,9.33333333 53.202,10.881888 53.202,12.7828724 C53.202,13.0498646 53.2340391,13.3168568 53.2874375,13.5731693 C50.4252813,13.4236537 47.872836,12.0566537 46.1747656,9.9634349 C45.8757344,10.4760599 45.7048594,11.0634427 45.7048594,11.704224 C45.7048594,12.900349 46.3136016,13.957638 47.2427344,14.5770599 C46.6767109,14.5557005 46.1427266,14.3955052 45.6835,14.1391927 L45.6835,14.1819115 C45.6835,15.8586224 46.8689453,17.2469818 48.4495391,17.5673724 C48.1611875,17.6421303 47.8514766,17.684849 47.5417656,17.684849 C47.3174922,17.684849 47.1038984,17.6634896 46.8903047,17.6314506 C47.3281719,18.9984506 48.5990547,19.9916615 50.1155703,20.0237006 C48.930125,20.9528334 47.4456485,21.4974975 45.8330156,21.4974975 C45.5446641,21.4974975 45.2776719,21.4868178 45,21.4547787 C46.5271953,22.43731 48.3427422,23.0033334 50.297125,23.0033334 C56.6408594,23.0033334 60.1117579,17.7489271 60.1117579,13.1887005 C60.1117579,13.0391849 60.1117579,12.8896693 60.1010782,12.7401537 C60.7738985,12.248888 61.3612813,11.6401458 61.8311876,10.9566458 Z" id="Combined-Shape"></path>
            </g>
        </g>
    </g>
</svg>