<?xml version="1.0" encoding="UTF-8"?>
<svg width="32px" height="32px" viewBox="0 0 32 32" version="1.1" xmlns="http://www.w3.org/2000/svg" xmlns:xlink="http://www.w3.org/1999/xlink">
    <!-- Generator: Sketch 49.3 (51167) - http://www.bohemiancoding.com/sketch -->
    <title>Combined Shape</title>
    <desc>Created with Sketch.</desc>
    <defs></defs>
    <g id="Symbols" stroke="none" stroke-width="1" fill="none" fill-rule="evenodd">
        <g id="footer-content" transform="translate(-840.000000, -39.000000)" fill="#000000">
            <g id="social" transform="translate(728.000000, 39.000000)">
                <path d="M128,32 C119.163444,32 112,24.836556 112,16 C112,7.163444 119.163444,0 128,0 C136.836556,0 144,7.163444 144,16 C144,24.836556 136.836556,32 128,32 Z M123.968754,12.3020893 L120.53125,12.3020893 L120.53125,22.6250182 L123.968754,22.6250182 L123.968754,12.3020893 Z M124.187505,9.11458546 C124.177088,8.10416759 123.44792,7.33333333 122.270836,7.33333333 C121.104168,7.33333333 120.333333,8.10416759 120.333333,9.11458546 C120.333333,10.10417 121.072918,10.8958376 122.229169,10.8958376 L122.250002,10.8958376 C123.44792,10.8958376 124.197921,10.10417 124.187505,9.11458546 Z M129.291677,13.7693324 L129.291677,12.3020893 L125.86459,12.3020893 C125.86459,12.3020893 125.906257,13.2708404 125.86459,22.6250182 L129.291677,22.6250182 L129.291677,16.8645947 C129.291677,16.5520943 129.322927,16.2500106 129.406261,16.0208437 C129.656261,15.4062596 130.218762,14.7708422 131.16668,14.7708422 C132.406264,14.7708422 132.906265,15.71876 132.906265,17.1041783 L132.906265,22.6250182 L136.333352,22.6250182 L136.333352,16.7083445 C136.333352,13.5416741 134.64585,12.0625056 132.385431,12.0625056 C130.559652,12.0625056 129.743886,13.0624191 129.291677,13.7693324 Z" id="Combined-Shape"></path>
            </g>
        </g>
    </g>
</svg>
